<?xml version="1.0" encoding="UTF-8"?>
<!DOCTYPE svg PUBLIC "-//W3C//DTD SVG 1.0//EN" "http://www.w3.org/TR/2001/REC-SVG-20010904/DTD/svg10.dtd">
<!-- Creator: CorelDRAW 2018 -->
<svg xmlns="http://www.w3.org/2000/svg" xml:space="preserve" width="100px" height="100px" version="1.0" style="shape-rendering:geometricPrecision; text-rendering:geometricPrecision; image-rendering:optimizeQuality; fill-rule:evenodd; clip-rule:evenodd"
viewBox="0 0 10.4 10.4"
 xmlns:xlink="http://www.w3.org/1999/xlink">
 <defs>
  <style type="text/css">
   <![CDATA[
    .fil5 {fill:#91D8F7;fill-rule:nonzero}
    .fil11 {fill:#005A80;fill-rule:nonzero}
    .fil10 {fill:#00B3FF;fill-rule:nonzero}
    .fil1 {fill:#2A3A4A;fill-rule:nonzero}
    .fil6 {fill:#3C3C3B;fill-rule:nonzero}
    .fil7 {fill:#959595;fill-rule:nonzero}
    .fil4 {fill:#E2E3E4;fill-rule:nonzero}
    .fil0 {fill:#E2E3E4;fill-rule:nonzero}
    .fil2 {fill:#E94D3E;fill-rule:nonzero}
    .fil9 {fill:#FF6800;fill-rule:nonzero}
    .fil8 {fill:#FFA466;fill-rule:nonzero}
    .fil3 {fill:white;fill-rule:nonzero}
   ]]>
  </style>
 </defs>
 <g id="Camada_x0020_1">
  <metadata id="CorelCorpID_0Corel-Layer"/>
  <g id="_591884504">
   <path class="fil0" d="M10.4 5.2c0,2.87 -2.33,5.2 -5.2,5.2 -2.87,0 -5.2,-2.33 -5.2,-5.2 0,-2.87 2.33,-5.2 5.2,-5.2 2.87,0 5.2,2.33 5.2,5.2z"/>
   <g>
    <g>
     <path class="fil1" d="M1.91 5.67l6.58 0 0 -3.54 -6.58 0 0 3.54z"/>
     <path class="fil2" d="M8.17 2.41l-2.97 0 2.97 2.98 0 -2.98z"/>
     <path class="fil2" d="M2.22 2.41l0 2.98 2.98 -2.98 -2.98 0z"/>
     <path class="fil3" d="M5.2 2.41l-2.98 2.98 5.95 0 0 0 -2.97 -2.98z"/>
    </g>
    <g>
     <path class="fil0" d="M6.81 6.13l-0.4 -0.4 0.22 0.82 0.18 -0.42z"/>
     <path class="fil4" d="M6.01 6.13l0.18 0.43 0.22 -0.83 -0.4 0.4z"/>
     <path class="fil5" d="M5.91 5.58l0 0 0 0.29 0.1 0.26 0.4 -0.4c-0.18,0 -0.35,-0.06 -0.5,-0.15z"/>
     <path class="fil5" d="M6.91 5.87l0 0 0 -0.29 0 0c-0.14,0.09 -0.31,0.15 -0.5,0.15l0.4 0.4 0.1 -0.26z"/>
     <path class="fil6" d="M7.45 5.58l-0.54 0 0 0.29 -0.28 0.68 -0.22 -0.82 -0.22 0.83 -0.28 -0.69 -0.41 0.41 0.83 0.83 2 0 0 -0.65c0,-0.49 -0.39,-0.88 -0.88,-0.88z"/>
     <path class="fil6" d="M5.91 5.58l-0.29 0 0.29 0.29 0 -0.29z"/>
     <path class="fil7" d="M5.5 6.28l0.41 -0.41 -0.29 -0.29 -0.25 0c-0.49,0 -0.88,0.39 -0.88,0.88l0 0.65 1.84 0 -0.83 -0.83z"/>
     <path class="fil7" d="M6.64 5.96l-0.23 0.23 -0.22 -0.23 0.22 -0.23 0.23 0.23z"/>
     <path class="fil0" d="M4.38 7.65l-0.39 -0.39 0.22 0.81 0.17 -0.42z"/>
     <path class="fil4" d="M3.59 7.66l0.17 0.43 0.23 -0.83 -0.4 0.4z"/>
     <path class="fil5" d="M3.49 7.11l-0.01 0 0 0.29 0.11 0.26 0.4 -0.4c-0.19,0 -0.36,-0.06 -0.5,-0.15z"/>
     <path class="fil5" d="M4.49 7.4l0 0 0 -0.29 -0.01 0c-0.14,0.09 -0.31,0.15 -0.49,0.15l0.39 0.39 0.11 -0.25z"/>
     <path class="fil6" d="M5.03 7.11l-0.54 0 0 0.29 -0.28 0.67 -0.22 -0.81 -0.23 0.83 -0.28 -0.69 -0.41 0.41 0.83 0.82 2.01 0 0 -0.64c0,-0.49 -0.4,-0.88 -0.88,-0.88z"/>
     <path class="fil6" d="M3.48 7.11l-0.29 0 0.29 0.29 0 -0.29z"/>
     <path class="fil7" d="M3.07 7.81l0.41 -0.41 -0.29 -0.29 -0.25 0c-0.48,0 -0.88,0.39 -0.88,0.88l0 0.64 1.84 0 -0.83 -0.82z"/>
     <path class="fil7" d="M4.21 7.49l-0.22 0.22 -0.23 -0.22 0.23 -0.23 0.22 0.23z"/>
     <path class="fil6" d="M3.99 5.61c0.09,0 0.17,0.08 0.17,0.18 0,0.09 -0.08,0.17 -0.17,0.17 -0.1,0 -0.18,-0.08 -0.18,-0.17 0,-0.1 0.08,-0.18 0.18,-0.18zm-0.61 0.33l0.27 0c0.03,0.08 0.1,0.15 0.18,0.19l0 0.26 0.31 0 0 -0.26c0.08,-0.04 0.15,-0.11 0.19,-0.19l0.26 0 0 -0.31 -0.26 0c-0.04,-0.08 -0.11,-0.15 -0.19,-0.18l0 -0.27 -0.31 0 0 0.27c-0.08,0.03 -0.15,0.1 -0.18,0.18l-0.27 0 0 0.31z"/>
     <path class="fil8" d="M4.53 5.79c0,0.29 -0.25,0.53 -0.54,0.53l0 0.15c0.37,0 0.68,-0.31 0.68,-0.68 0,-0.38 -0.31,-0.69 -0.68,-0.69l0 0.15c0.29,0 0.54,0.24 0.54,0.54z"/>
     <path class="fil9" d="M3.3 5.79c0,0.37 0.31,0.68 0.69,0.68l0 -0.15c-0.3,0 -0.54,-0.24 -0.54,-0.53 0,-0.3 0.24,-0.54 0.54,-0.54l0 -0.15c-0.38,0 -0.69,0.31 -0.69,0.69z"/>
     <path class="fil9" d="M5.05 5.82l0.28 -0.09 -0.06 -0.35 -0.29 0.01c-0.04,-0.09 -0.1,-0.18 -0.16,-0.26l0.16 -0.26 -0.27 -0.22 -0.22 0.2c-0.09,-0.05 -0.19,-0.09 -0.29,-0.11l-0.04 -0.29 -0.17 0 0 0.65c0.37,0 0.68,0.31 0.68,0.69 0,0.37 -0.31,0.68 -0.68,0.68l0 0.38c0.05,0 0.1,0 0.15,-0.01l0.14 0.26 0.33 -0.12 -0.07 -0.29c0.09,-0.05 0.17,-0.12 0.24,-0.2l0.28 0.11 0.17 -0.3 -0.23 -0.18c0.03,-0.09 0.05,-0.2 0.05,-0.3z"/>
     <path class="fil8" d="M3.99 6.47c-0.38,0 -0.69,-0.31 -0.69,-0.68 0,-0.38 0.31,-0.69 0.69,-0.69l0 -0.65 -0.18 0 -0.04 0.29c-0.1,0.02 -0.2,0.06 -0.29,0.11l-0.22 -0.2 -0.26 0.22 0.15 0.26c-0.06,0.08 -0.11,0.17 -0.15,0.26l-0.3 -0.01 -0.06 0.35 0.28 0.09c0.01,0.1 0.03,0.21 0.06,0.3l-0.24 0.18 0.18 0.3 0.27 -0.11c0.07,0.08 0.15,0.15 0.24,0.2l-0.06 0.29 0.32 0.12 0.14 -0.26c0.05,0.01 0.1,0.01 0.16,0.01l0 -0.38z"/>
     <path class="fil6" d="M6.41 4.09c0.1,0 0.18,0.08 0.18,0.17 0,0.1 -0.08,0.18 -0.18,0.18 -0.09,0 -0.17,-0.08 -0.17,-0.18 0,-0.09 0.08,-0.17 0.17,-0.17zm-0.6 0.33l0.26 0c0.04,0.08 0.11,0.15 0.19,0.18l0 0.27 0.31 0 0 -0.27c0.08,-0.03 0.15,-0.1 0.18,-0.18l0.27 0 0 -0.31 -0.27 0c-0.03,-0.08 -0.1,-0.15 -0.18,-0.19l0 -0.26 -0.31 0 0 0.26c-0.08,0.04 -0.15,0.11 -0.19,0.19l-0.26 0 0 0.31z"/>
     <path class="fil5" d="M6.95 4.26c0,0.3 -0.24,0.54 -0.54,0.54l0 0.15c0.38,0 0.68,-0.31 0.68,-0.69 0,-0.37 -0.3,-0.68 -0.68,-0.68l0 0.15c0.3,0 0.54,0.24 0.54,0.53z"/>
     <path class="fil7" d="M5.73 4.26c0,0.38 0.31,0.69 0.68,0.69l0 -0.15c-0.29,0 -0.54,-0.24 -0.54,-0.54 0,-0.29 0.25,-0.53 0.54,-0.53l0 -0.15c-0.37,0 -0.68,0.31 -0.68,0.68z"/>
     <path class="fil7" d="M7.48 4.29l0.28 -0.09 -0.06 -0.34 -0.3 0.01c-0.04,-0.1 -0.09,-0.19 -0.15,-0.27l0.15 -0.25 -0.26 -0.22 -0.22 0.2c-0.09,-0.05 -0.19,-0.09 -0.29,-0.11l-0.04 -0.29 -0.18 0 0 0.65c0.38,0 0.68,0.31 0.68,0.68 0,0.38 -0.3,0.69 -0.68,0.69l0 0.38c0.06,0 0.11,-0.01 0.16,-0.01l0.14 0.26 0.32 -0.12 -0.06 -0.29c0.09,-0.05 0.17,-0.12 0.24,-0.2l0.27 0.11 0.18 -0.3 -0.24 -0.18c0.03,-0.1 0.05,-0.2 0.06,-0.31z"/>
     <path class="fil5" d="M6.41 4.95c-0.37,0 -0.68,-0.31 -0.68,-0.69 0,-0.37 0.31,-0.68 0.68,-0.68l0 -0.65 -0.17 0 -0.04 0.29c-0.1,0.02 -0.2,0.06 -0.29,0.11l-0.22 -0.2 -0.27 0.22 0.16 0.25c-0.07,0.08 -0.12,0.17 -0.16,0.27l-0.29 -0.01 -0.06 0.34 0.28 0.09c0,0.11 0.02,0.21 0.05,0.31l-0.23 0.18 0.17 0.3 0.28 -0.11c0.07,0.08 0.15,0.15 0.24,0.2l-0.07 0.29 0.33 0.12 0.14 -0.26c0.05,0 0.1,0.01 0.15,0.01l0 -0.38z"/>
     <path class="fil6" d="M4.36 3.57c0.05,0 0.09,0.05 0.09,0.1 0,0.05 -0.04,0.09 -0.09,0.09 -0.06,0 -0.1,-0.04 -0.1,-0.09 0,-0.05 0.04,-0.1 0.1,-0.1zm-0.32 0.18l0.14 0c0.02,0.04 0.05,0.08 0.09,0.1l0 0.13 0.17 0 0 -0.13c0.04,-0.02 0.08,-0.06 0.09,-0.1l0.14 0 0 -0.17 -0.14 0c-0.01,-0.04 -0.05,-0.07 -0.09,-0.09l0 -0.14 -0.17 0 0 0.14c-0.04,0.02 -0.07,0.05 -0.09,0.09l-0.14 0 0 0.17z"/>
     <path class="fil10" d="M4.64 3.67c0,0.15 -0.13,0.28 -0.28,0.28l0 0.08c0.19,0 0.36,-0.17 0.36,-0.36 0,-0.2 -0.17,-0.36 -0.36,-0.36l0 0.07c0.15,0 0.28,0.13 0.28,0.29z"/>
     <path class="fil11" d="M4 3.67c0,0.19 0.16,0.36 0.36,0.36l0 -0.08c-0.16,0 -0.29,-0.13 -0.29,-0.28 0,-0.16 0.13,-0.29 0.29,-0.29l0 -0.07c-0.2,0 -0.36,0.16 -0.36,0.36z"/>
     <path class="fil11" d="M4.92 3.68l0.14 -0.05 -0.03 -0.18 -0.15 0.01c-0.02,-0.05 -0.05,-0.1 -0.09,-0.14l0.09 -0.13 -0.14 -0.12 -0.12 0.1c-0.05,-0.02 -0.1,-0.04 -0.15,-0.05l-0.02 -0.16 -0.09 0 0 0.35c0.19,0 0.36,0.16 0.36,0.36 0,0.19 -0.17,0.36 -0.36,0.36l0 0.2c0.02,0 0.05,0 0.08,-0.01l0.07 0.14 0.17 -0.06 -0.03 -0.16c0.05,-0.02 0.09,-0.06 0.12,-0.1l0.15 0.06 0.09 -0.16 -0.12 -0.1c0.01,-0.05 0.02,-0.1 0.03,-0.16z"/>
     <path class="fil10" d="M4.36 4.03c-0.2,0 -0.36,-0.17 -0.36,-0.36 0,-0.2 0.16,-0.36 0.36,-0.36l0 -0.35 -0.1 0 -0.02 0.16c-0.05,0.01 -0.1,0.03 -0.15,0.05l-0.12 -0.1 -0.14 0.12 0.09 0.13c-0.04,0.04 -0.07,0.09 -0.09,0.14l-0.15 -0.01 -0.03 0.18 0.14 0.05c0.01,0.06 0.02,0.11 0.03,0.16l-0.12 0.1 0.09 0.16 0.15 -0.06c0.03,0.04 0.07,0.08 0.12,0.1l-0.03 0.16 0.17 0.06 0.07 -0.14c0.03,0.01 0.06,0.01 0.09,0.01l0 -0.2z"/>
    </g>
   </g>
  </g>
 </g>
</svg>
