<?xml version="1.0" encoding="UTF-8"?>
<!DOCTYPE svg PUBLIC "-//W3C//DTD SVG 1.0//EN" "http://www.w3.org/TR/2001/REC-SVG-20010904/DTD/svg10.dtd">
<!-- Creator: CorelDRAW 2018 -->
<svg xmlns="http://www.w3.org/2000/svg" xml:space="preserve" width="100px" height="100px" version="1.0" style="shape-rendering:geometricPrecision; text-rendering:geometricPrecision; image-rendering:optimizeQuality; fill-rule:evenodd; clip-rule:evenodd"
viewBox="0 0 10.35 10.35"
 xmlns:xlink="http://www.w3.org/1999/xlink">
 <defs>
  <style type="text/css">
   <![CDATA[
    .fil1 {fill:#2072BC;fill-rule:nonzero}
    .fil2 {fill:#3598DB;fill-rule:nonzero}
    .fil0 {fill:#E2E3E4;fill-rule:nonzero}
   ]]>
  </style>
 </defs>
 <g id="Camada_x0020_1">
  <metadata id="CorelCorpID_0Corel-Layer"/>
  <g id="_593431480">
   <path class="fil0" d="M10.35 5.17c0,2.86 -2.32,5.18 -5.18,5.18 -2.85,0 -5.17,-2.32 -5.17,-5.18 0,-2.85 2.32,-5.17 5.17,-5.17 2.86,0 5.18,2.32 5.18,5.17z"/>
   <g>
    <path class="fil1" d="M9.21 5.17c0,2.23 -1.81,4.04 -4.04,4.04 -2.23,0 -4.03,-1.81 -4.03,-4.04 0,-2.23 1.8,-4.03 4.03,-4.03 2.23,0 4.04,1.8 4.04,4.03z"/>
    <path class="fil2" d="M5.85 8.7c0.41,-0.45 0.74,-0.97 0.98,-1.52l1.32 0c-0.52,0.78 -1.35,1.34 -2.3,1.52zm-3.66 -1.52l1.12 0c0.2,0.52 0.49,1 0.84,1.44 -0.8,-0.24 -1.49,-0.76 -1.96,-1.44zm1.95 -5.45c-0.34,0.43 -0.62,0.9 -0.83,1.4l-1.09 0c0.46,-0.66 1.14,-1.16 1.92,-1.4zm3.99 1.4l-1.21 0c-0.19,-0.51 -0.46,-0.98 -0.79,-1.42 0.82,0.23 1.52,0.74 2,1.42zm-0.87 1.82c0,-0.47 -0.07,-0.93 -0.19,-1.37l1.32 0c0.21,0.42 0.34,0.88 0.37,1.37l-1.5 0zm-0.01 0.45l1.51 0c-0.03,0.47 -0.15,0.92 -0.35,1.33l-1.41 0c0.14,-0.43 0.22,-0.88 0.25,-1.33zm-1.85 1.33l0 -1.33 1.41 0c-0.04,0.46 -0.13,0.91 -0.29,1.33l-1.12 0zm0 1.8l0 -1.35 0.94 0c-0.24,0.49 -0.55,0.95 -0.94,1.35zm-2.03 -3.13l1.58 0 0 1.33 -1.34 0c-0.14,-0.42 -0.22,-0.87 -0.24,-1.33zm-0.45 -0.45l-1.33 0c0.03,-0.49 0.16,-0.95 0.37,-1.37l1.19 0c-0.13,0.44 -0.21,0.9 -0.23,1.37zm2.03 -1.37l0 1.37 -1.58 0c0.02,-0.47 0.11,-0.93 0.25,-1.37l1.33 0zm0 -0.45l-1.15 0c0.25,-0.57 0.61,-1.09 1.08,-1.53 0.02,-0.01 0.05,-0.01 0.07,-0.01l0 1.54zm1.65 0.45c0.14,0.44 0.21,0.9 0.22,1.37l-1.42 0 0 -1.37 1.2 0zm-1.2 -0.45l0 -1.54c0.01,0 0.02,0 0.04,0 0.43,0.46 0.77,0.98 1,1.54l-1.04 0zm-3.81 2.27l1.33 0c0.02,0.45 0.1,0.9 0.23,1.33l-1.21 0c-0.2,-0.41 -0.32,-0.86 -0.35,-1.33zm2.19 1.78l1.17 0 0 1.58c-0.02,0 -0.04,-0.01 -0.07,-0.01 -0.47,-0.46 -0.84,-0.99 -1.1,-1.57zm1.39 -6.04c-2.22,0 -4.03,1.81 -4.03,4.03 0,2.23 1.81,4.04 4.03,4.04 2.23,0 4.04,-1.81 4.04,-4.04 0,-2.22 -1.81,-4.03 -4.04,-4.03z"/>
   </g>
  </g>
 </g>
</svg>
