<?xml version="1.0" encoding="UTF-8"?>
<!DOCTYPE svg PUBLIC "-//W3C//DTD SVG 1.0//EN" "http://www.w3.org/TR/2001/REC-SVG-20010904/DTD/svg10.dtd">
<!-- Creator: CorelDRAW 2018 -->
<svg xmlns="http://www.w3.org/2000/svg" xml:space="preserve" width="100px" height="100px" version="1.0" style="shape-rendering:geometricPrecision; text-rendering:geometricPrecision; image-rendering:optimizeQuality; fill-rule:evenodd; clip-rule:evenodd"
viewBox="0 0 10.08 10.08"
 xmlns:xlink="http://www.w3.org/1999/xlink">
 <defs>
  <style type="text/css">
   <![CDATA[
    .fil10 {fill:#151D25;fill-rule:nonzero}
    .fil4 {fill:#2072BC;fill-rule:nonzero}
    .fil9 {fill:#2A3A4A;fill-rule:nonzero}
    .fil2 {fill:#3598DB;fill-rule:nonzero}
    .fil6 {fill:#A9B6BF;fill-rule:nonzero}
    .fil1 {fill:#AF3A2F;fill-rule:nonzero}
    .fil5 {fill:#E1F3FF;fill-rule:nonzero}
    .fil0 {fill:#E2E3E4;fill-rule:nonzero}
    .fil3 {fill:#E94D3E;fill-rule:nonzero}
    .fil7 {fill:#F9B59D;fill-rule:nonzero}
    .fil8 {fill:#FFCAB3;fill-rule:nonzero}
   ]]>
  </style>
 </defs>
 <g id="Camada_x0020_1">
  <metadata id="CorelCorpID_0Corel-Layer"/>
  <g id="_593433520">
   <path class="fil0" d="M10.08 5.04c0,2.79 -2.25,5.04 -5.04,5.04 -2.78,0 -5.04,-2.25 -5.04,-5.04 0,-2.78 2.26,-5.04 5.04,-5.04 2.79,0 5.04,2.26 5.04,5.04z"/>
   <g>
    <path class="fil1" d="M4.78 7.95l0.53 0 0 -1.18 -0.53 0 0 1.18z"/>
    <path class="fil2" d="M5.04 8.01c-0.2,0 -0.37,0.16 -0.37,0.37 0,0.2 0.17,0.37 0.37,0.37 0.21,0 0.37,-0.17 0.37,-0.37 0,-0.21 -0.16,-0.37 -0.37,-0.37zm0 1.05c-0.38,0 -0.68,-0.3 -0.68,-0.68 0,-0.38 0.3,-0.69 0.68,-0.69 0.38,0 0.69,0.31 0.69,0.69 0,0.38 -0.31,0.68 -0.69,0.68z"/>
    <path class="fil1" d="M3.62 7.7l-0.48 -0.23 0.5 -1.07 0.48 0.22 -0.5 1.08z"/>
    <path class="fil3" d="M3.2 7.6c-0.14,0 -0.27,0.08 -0.33,0.21 -0.04,0.09 -0.05,0.19 -0.01,0.29 0.03,0.09 0.1,0.16 0.19,0.2 0.05,0.03 0.1,0.04 0.15,0.04 0.15,0 0.28,-0.08 0.34,-0.21 0.04,-0.09 0.04,-0.19 0.01,-0.29 -0.03,-0.09 -0.1,-0.16 -0.19,-0.2 -0.05,-0.03 -0.1,-0.04 -0.16,-0.04zm0 1.06c-0.1,0 -0.19,-0.03 -0.29,-0.07 -0.16,-0.08 -0.29,-0.21 -0.35,-0.39 -0.06,-0.17 -0.05,-0.35 0.02,-0.52 0.11,-0.24 0.36,-0.4 0.62,-0.4 0.1,0 0.2,0.03 0.29,0.07 0.17,0.08 0.29,0.21 0.36,0.39 0.06,0.17 0.05,0.35 -0.03,0.52 -0.11,0.24 -0.35,0.4 -0.62,0.4z"/>
    <path class="fil1" d="M2.2 6.75l-0.34 -0.4 0.91 -0.76 0.34 0.4 -0.91 0.76z"/>
    <path class="fil4" d="M1.71 6.45c-0.09,0 -0.17,0.03 -0.24,0.09 -0.07,0.06 -0.12,0.15 -0.13,0.25 -0.01,0.1 0.02,0.2 0.09,0.27 0.07,0.08 0.17,0.13 0.28,0.13 0.09,0 0.17,-0.03 0.24,-0.08 0.07,-0.07 0.12,-0.16 0.13,-0.25 0.01,-0.1 -0.02,-0.2 -0.09,-0.27 -0.07,-0.09 -0.17,-0.14 -0.28,-0.14zm0 1.06c-0.2,0 -0.39,-0.09 -0.53,-0.25 -0.11,-0.14 -0.17,-0.31 -0.15,-0.5 0.01,-0.18 0.1,-0.34 0.24,-0.46 0.12,-0.11 0.28,-0.16 0.44,-0.16 0.2,0 0.39,0.09 0.52,0.24 0.12,0.14 0.18,0.32 0.16,0.5 -0.01,0.19 -0.1,0.35 -0.24,0.47 -0.12,0.1 -0.28,0.16 -0.44,0.16z"/>
    <path class="fil1" d="M6.46 7.7l-0.5 -1.08 0.48 -0.22 0.5 1.07 -0.48 0.23z"/>
    <path class="fil3" d="M6.88 7.6c-0.05,0 -0.11,0.01 -0.16,0.04 -0.18,0.08 -0.26,0.3 -0.17,0.49 0.06,0.13 0.19,0.21 0.33,0.21 0.05,0 0.11,-0.01 0.16,-0.04 0.09,-0.04 0.15,-0.11 0.19,-0.2 0.03,-0.1 0.03,-0.2 -0.02,-0.29 -0.06,-0.13 -0.19,-0.21 -0.33,-0.21zm0 1.06c-0.26,0 -0.51,-0.16 -0.62,-0.4 -0.16,-0.34 -0.01,-0.75 0.33,-0.91 0.09,-0.04 0.19,-0.07 0.29,-0.07 0.27,0 0.51,0.16 0.62,0.4 0.08,0.17 0.09,0.35 0.02,0.52 -0.06,0.18 -0.18,0.31 -0.35,0.39 -0.09,0.04 -0.19,0.07 -0.29,0.07z"/>
    <path class="fil1" d="M7.88 6.75l-0.91 -0.76 0.34 -0.4 0.91 0.76 -0.34 0.4z"/>
    <path class="fil4" d="M8.37 6.45c-0.11,0 -0.21,0.05 -0.28,0.14 -0.06,0.07 -0.09,0.17 -0.08,0.27 0.01,0.09 0.05,0.18 0.13,0.25 0.06,0.05 0.15,0.08 0.23,0.08 0.11,0 0.22,-0.05 0.29,-0.13 0.06,-0.08 0.09,-0.17 0.08,-0.27 -0.01,-0.1 -0.05,-0.19 -0.13,-0.25 -0.07,-0.06 -0.15,-0.09 -0.24,-0.09zm0 1.06c-0.16,0 -0.31,-0.06 -0.44,-0.16 -0.14,-0.12 -0.22,-0.28 -0.24,-0.47 -0.01,-0.18 0.04,-0.36 0.16,-0.5 0.13,-0.15 0.32,-0.24 0.52,-0.24 0.17,0 0.32,0.05 0.44,0.16 0.15,0.12 0.23,0.28 0.25,0.46 0.01,0.19 -0.04,0.36 -0.16,0.5 -0.13,0.16 -0.32,0.25 -0.53,0.25z"/>
    <path class="fil5" d="M5.44 5.23l-0.4 -0.4 0.22 0.82 0.18 -0.42z"/>
    <path class="fil6" d="M4.64 5.23l0.18 0.43 0.22 -0.83 -0.4 0.4z"/>
    <path class="fil7" d="M5.51 2.83c-0.19,0 -0.42,0.17 -0.54,0.3l0.07 1.47c0.52,-0.01 0.94,-0.64 1,-1.18 0,-0.04 0.01,-0.08 0.01,-0.13l0 -0.22c-0.06,-0.14 -0.39,-0.24 -0.54,-0.24z"/>
    <path class="fil8" d="M5.84 2.32c-0.46,0.32 -1.01,0.51 -1.61,0.51 -0.07,0 -0.14,-0.01 -0.2,-0.01 -0.01,0.04 -0.01,0.08 -0.01,0.12l0 0.35c0,0.05 0,0.09 0.01,0.13 0.06,0.54 0.48,1.18 1,1.18 0.01,0 0.01,0 0.01,0l0 -0.67c0.07,0 0.11,-0.06 0.11,-0.12l0 -0.65c0,0 0.01,-0.02 0.04,-0.05 0.06,-0.07 0.21,-0.21 0.38,-0.21 0.33,0 0.48,0.17 0.48,0.17l0 -0.13c0,-0.23 -0.08,-0.45 -0.21,-0.62z"/>
    <path class="fil9" d="M6.13 2.09c-0.24,-0.34 -0.64,-0.57 -1.09,-0.57 -0.71,0 -1.29,0.56 -1.32,1.26 0,0.02 -0.01,0.04 -0.01,0.07l0 0.26c0,0.17 0.14,0.31 0.31,0.31l0.01 0c-0.01,-0.04 -0.01,-0.08 -0.01,-0.13l0 -0.35c0,-0.04 0,-0.08 0.01,-0.12 0.06,0 0.13,0.01 0.2,0.01 0.6,0 1.15,-0.19 1.61,-0.51 0,0 0,0 0,0 0.13,0.17 0.21,0.39 0.21,0.62l0 0.35c0,0.05 -0.01,0.09 -0.01,0.13l0.02 0c0.17,0 0.31,-0.14 0.31,-0.31l0 -0.26c0,-0.28 -0.09,-0.54 -0.24,-0.76z"/>
    <path class="fil5" d="M4.54 4.68l0 0 0 0.29 0.1 0.26 0.4 -0.4c-0.18,0 -0.36,-0.06 -0.5,-0.15z"/>
    <path class="fil6" d="M5.54 4.97l0 0 0 -0.29 0 0c-0.14,0.09 -0.31,0.15 -0.5,0.15l0.4 0.4 0.1 -0.26z"/>
    <path class="fil10" d="M6.09 4.68l-0.55 0 0 0.29 -0.28 0.68 -0.22 -0.82 -0.22 0.83 -0.28 -0.69 -0.41 0.41 1.27 1.28 1.57 -0.45 0 -0.65c0,-0.49 -0.39,-0.88 -0.88,-0.88z"/>
    <path class="fil10" d="M4.54 4.68l-0.29 0 0.29 0.29 0 -0.29z"/>
    <path class="fil9" d="M4.13 5.38l0.41 -0.41 -0.29 -0.29 -0.26 0c-0.48,0 -0.88,0.39 -0.88,0.88l0 0.65 2.42 0.57 -1.4 -1.4z"/>
    <path class="fil3" d="M5.27 5.06l-0.23 0.23 -0.23 -0.23 0.23 -0.23 0.23 0.23z"/>
    <path class="fil3" d="M5.04 1.55c-1.36,0 -2.48,1.11 -2.48,2.48 0,1.36 1.12,2.48 2.48,2.48 1.37,0 2.48,-1.12 2.48,-2.48 0,-1.37 -1.11,-2.48 -2.48,-2.48zm0 5.48c-1.66,0 -3,-1.35 -3,-3 0,-1.66 1.34,-3.01 3,-3.01 1.66,0 3.01,1.35 3.01,3.01 0,1.65 -1.35,3 -3.01,3z"/>
   </g>
  </g>
 </g>
</svg>
