<?xml version="1.0" encoding="UTF-8"?>
<!DOCTYPE svg PUBLIC "-//W3C//DTD SVG 1.0//EN" "http://www.w3.org/TR/2001/REC-SVG-20010904/DTD/svg10.dtd">
<!-- Creator: CorelDRAW 2018 -->
<svg xmlns="http://www.w3.org/2000/svg" xml:space="preserve" width="100px" height="100px" version="1.0" style="shape-rendering:geometricPrecision; text-rendering:geometricPrecision; image-rendering:optimizeQuality; fill-rule:evenodd; clip-rule:evenodd"
viewBox="0 0 10.25 10.25"
 xmlns:xlink="http://www.w3.org/1999/xlink">
 <defs>
  <style type="text/css">
   <![CDATA[
    .fil6 {fill:#2A3A4A;fill-rule:nonzero}
    .fil5 {fill:#3598DB;fill-rule:nonzero}
    .fil7 {fill:#67C3FF;fill-rule:nonzero}
    .fil2 {fill:#A9B6BF;fill-rule:nonzero}
    .fil4 {fill:#AF3A2F;fill-rule:nonzero}
    .fil1 {fill:#E1F3FF;fill-rule:nonzero}
    .fil0 {fill:#E2E3E4;fill-rule:nonzero}
    .fil3 {fill:#E94D3E;fill-rule:nonzero}
   ]]>
  </style>
 </defs>
 <g id="Camada_x0020_1">
  <metadata id="CorelCorpID_0Corel-Layer"/>
  <g id="_595312320">
   <path class="fil0" d="M10.25 5.12c0,2.83 -2.3,5.13 -5.13,5.13 -2.83,0 -5.12,-2.3 -5.12,-5.13 0,-2.83 2.29,-5.12 5.12,-5.12 2.83,0 5.13,2.29 5.13,5.12z"/>
   <g>
    <path class="fil1" d="M6.81 3.49l-2.61 -1.06c-0.11,-0.06 -0.02,2.43 -0.02,2.43l2.63 -0.02 0 -1.35z"/>
    <path class="fil2" d="M4.43 2.52l0 3.98 2.38 -0.93 0 -1.04 -1.84 0 0 -1.79 -0.54 -0.22z"/>
    <path class="fil3" d="M7.73 6.56c0,0.11 -0.09,0.21 -0.2,0.21l-0.46 0c-0.11,0 -0.2,-0.1 -0.2,-0.21l0 -0.07c0,-0.11 0.09,-0.21 0.2,-0.21l0.46 0c0.11,0 0.2,0.1 0.2,0.21l0 0.07z"/>
    <path class="fil3" d="M8.51 3.84l0 -0.35 -1.7 0 0 1.04 1.7 0 0 -0.35 0 -0.34z"/>
    <path class="fil4" d="M8.51 4.88l0 -0.35 -1.7 0 0 1.04 1.7 0 0 -0.35 0 -0.34z"/>
    <path class="fil5" d="M8.35 7.75c0,0.12 -0.09,0.21 -0.2,0.21l-0.98 0c-0.11,0 -0.21,-0.09 -0.21,-0.21l0 -0.07c0,-0.11 0.1,-0.2 0.21,-0.2l0.98 0c0.11,0 0.2,0.09 0.2,0.2l0 0.07z"/>
    <path class="fil4" d="M3.94 4.53l0 2.06c0,0.1 0.08,0.18 0.18,0.18l0.13 0c0.1,0 0.18,-0.08 0.18,-0.18l0 -2.06 -0.49 0z"/>
    <path class="fil3" d="M4.43 4.53l0 -2.06c0,-0.1 -0.08,-0.18 -0.18,-0.18l-0.13 0c-0.1,0 -0.18,0.08 -0.18,0.18l0 2.06 0.49 0z"/>
    <path class="fil6" d="M8.14 5.57l-1.33 0 0 0c0,0 0,0 0,0 0.2,0 0.36,0.17 0.36,0.37l0 1.54 0.97 0 0 -1.54c0,-0.2 0.17,-0.37 0.37,-0.37 0,0 0,0 0,0l0 0 -0.37 0z"/>
    <path class="fil5" d="M8.51 3.65l0 1.81c0.12,0 0.24,-0.03 0.34,-0.08l0 -1.65c-0.1,-0.05 -0.22,-0.08 -0.34,-0.08z"/>
    <path class="fil6" d="M8.85 3.91l0 1.29c0.2,-0.1 0.34,-0.3 0.34,-0.54l0 -0.21c0,-0.24 -0.14,-0.44 -0.34,-0.54z"/>
    <path class="fil6" d="M3.94 3.91l0 1.29c-0.2,-0.1 -0.34,-0.3 -0.34,-0.54l0 -0.21c0,-0.24 0.14,-0.44 0.34,-0.54z"/>
    <path class="fil5" d="M2.72 4.38c0.1,0 0.17,0.08 0.17,0.17l0 0c0,0.1 -0.07,0.17 -0.17,0.17l-1.49 0c-0.1,0 -0.17,-0.07 -0.17,-0.17l0 0c0,-0.09 0.07,-0.17 0.17,-0.17l1.49 0z"/>
    <path class="fil7" d="M2.83 4.98c0.07,-0.06 0.18,-0.06 0.24,0l0 0c0.07,0.07 0.07,0.18 0,0.25l-1.06 1.05c-0.06,0.07 -0.17,0.07 -0.24,0l0 0c-0.06,-0.06 -0.06,-0.17 0,-0.24l1.06 -1.06z"/>
    <path class="fil7" d="M3.07 3.88c0.07,0.07 0.07,0.18 0,0.24l0 0c-0.06,0.07 -0.17,0.07 -0.24,0l-1.06 -1.05c-0.06,-0.07 -0.06,-0.18 0,-0.25l0 0c0.07,-0.06 0.18,-0.06 0.24,0l1.06 1.06z"/>
   </g>
  </g>
 </g>
</svg>
