<?xml version="1.0" encoding="UTF-8"?>
<!DOCTYPE svg PUBLIC "-//W3C//DTD SVG 1.0//EN" "http://www.w3.org/TR/2001/REC-SVG-20010904/DTD/svg10.dtd">
<!-- Creator: CorelDRAW 2018 -->
<svg xmlns="http://www.w3.org/2000/svg" xml:space="preserve" width="100px" height="100px" version="1.0" style="shape-rendering:geometricPrecision; text-rendering:geometricPrecision; image-rendering:optimizeQuality; fill-rule:evenodd; clip-rule:evenodd"
viewBox="0 0 10.35 10.35"
 xmlns:xlink="http://www.w3.org/1999/xlink">
 <defs>
  <style type="text/css">
   <![CDATA[
    .fil3 {fill:#FFF212;fill-rule:nonzero}
    .fil2 {fill:#00AFEF;fill-rule:nonzero}
    .fil6 {fill:#3C3C3B;fill-rule:nonzero}
    .fil4 {fill:#959595;fill-rule:nonzero}
    .fil0 {fill:#E2E3E4;fill-rule:nonzero}
    .fil5 {fill:#FF6800;fill-rule:nonzero}
    .fil1 {fill:#FFCAB3;fill-rule:nonzero}
   ]]>
  </style>
 </defs>
 <g id="Camada_x0020_1">
  <metadata id="CorelCorpID_0Corel-Layer"/>
  <g id="_589841080">
   <path class="fil0" d="M10.35 5.17c0,-2.85 -2.32,-5.17 -5.18,-5.17 -2.85,0 -5.17,2.32 -5.17,5.17 0,2.86 2.32,5.18 5.17,5.18 0.03,0 0.05,0 0.07,0l0 -1.97 -0.88 -1.04 0.85 -0.72 0.75 0.76 0 -1.73c0,-0.1 0.08,-0.18 0.19,-0.18 0.1,0 0.18,0.08 0.18,0.18l0 1.29c0,0.2 0.18,0.51 0.26,0.71 0.06,0.14 0.18,0.58 0.18,0.58l0.31 1.75c1.91,-0.75 3.27,-2.62 3.27,-4.81z"/>
   <path class="fil1" d="M6.59 7.65c-0.08,-0.2 -0.26,-0.51 -0.26,-0.71l0 -1.29c0,-0.1 -0.08,-0.18 -0.18,-0.18 -0.11,0 -0.19,0.08 -0.19,0.18l0 1.73 -0.75 -0.76 -0.85 0.72 0.88 1.04 0 1.97c0.65,-0.01 1.27,-0.14 1.84,-0.37l-0.31 -1.75c0,0 -0.12,-0.44 -0.18,-0.58z"/>
   <path class="fil2" d="M3.66 4.34c0,0.38 0.14,0.73 0.37,1l0 0c0.26,0.33 0.41,0.73 0.41,1.18l0.01 0c-0.01,0.03 -0.01,0.06 -0.01,0.1 0,0.41 0.34,0.42 0.75,0.42l0 -4.23c-0.85,0 -1.53,0.69 -1.53,1.53z"/>
   <path class="fil3" d="M6.72 4.34c0,-0.84 -0.69,-1.53 -1.53,-1.53l0 4.23c0.41,0 0.78,0.03 0.78,-0.38 0,-0.03 -0.01,-0.14 -0.01,-0.14 0,-0.45 0.13,-0.85 0.39,-1.18l-0.01 0c0.24,-0.27 0.38,-0.62 0.38,-1z"/>
   <path class="fil3" d="M5.21 1.13c0.06,0 0.11,0.04 0.11,0.1l0 0.82c0,0.06 -0.05,0.1 -0.11,0.1l0 0c-0.05,0 -0.1,-0.04 -0.1,-0.1l0 -0.82c0,-0.06 0.05,-0.1 0.1,-0.1l0 0z"/>
   <path class="fil2" d="M3.6 1.54c0.05,-0.03 0.12,-0.01 0.14,0.04l0.41 0.7c0.03,0.05 0.01,0.12 -0.04,0.15l0 0c-0.05,0.03 -0.11,0.01 -0.14,-0.04l-0.41 -0.71c-0.03,-0.05 -0.01,-0.11 0.04,-0.14l0 0z"/>
   <path class="fil2" d="M2.41 2.7c0.03,-0.05 0.09,-0.07 0.14,-0.04l0.71 0.41c0.05,0.03 0.07,0.09 0.04,0.14l0 0c-0.03,0.05 -0.09,0.07 -0.14,0.04l-0.71 -0.41c-0.05,-0.03 -0.07,-0.09 -0.04,-0.14l0 0z"/>
   <path class="fil2" d="M1.96 4.3c0,-0.06 0.05,-0.1 0.11,-0.1l0.81 0c0.06,0 0.11,0.04 0.11,0.1l0 0c0,0.06 -0.05,0.11 -0.11,0.11l-0.81 0c-0.06,0 -0.11,-0.05 -0.11,-0.11l0 0z"/>
   <path class="fil2" d="M2.37 5.91c-0.03,-0.05 -0.01,-0.11 0.04,-0.14l0.71 -0.41c0.05,-0.03 0.11,-0.01 0.14,0.04l0 0c0.03,0.05 0.01,0.11 -0.04,0.14l-0.7 0.41c-0.05,0.03 -0.12,0.01 -0.15,-0.04l0 0z"/>
   <path class="fil3" d="M7.94 5.98c-0.03,0.05 -0.1,0.07 -0.15,0.04l-0.7 -0.41c-0.05,-0.03 -0.07,-0.09 -0.04,-0.14l0 0c0.03,-0.05 0.09,-0.07 0.14,-0.04l0.71 0.41c0.05,0.03 0.07,0.09 0.04,0.14l0 0z"/>
   <path class="fil3" d="M8.39 4.38c0,0.06 -0.05,0.1 -0.11,0.1l-0.82 0c-0.05,0 -0.1,-0.04 -0.1,-0.1l0 0c0,-0.06 0.05,-0.11 0.1,-0.11l0.82 0c0.06,0 0.11,0.05 0.11,0.11l0 0z"/>
   <path class="fil3" d="M7.98 2.77c0.03,0.05 0.01,0.11 -0.04,0.14l-0.71 0.41c-0.05,0.03 -0.11,0.01 -0.14,-0.04l0 0c-0.03,-0.05 -0.02,-0.11 0.03,-0.14l0.71 -0.41c0.05,-0.03 0.12,-0.01 0.15,0.04l0 0z"/>
   <path class="fil3" d="M6.81 1.58c0.05,0.03 0.07,0.09 0.04,0.14l-0.41 0.71c-0.03,0.05 -0.09,0.07 -0.14,0.04l0 0c-0.05,-0.03 -0.07,-0.1 -0.04,-0.15l0.41 -0.71c0.03,-0.04 0.09,-0.06 0.14,-0.03l0 0z"/>
   <path class="fil4" d="M5.45 8.56c0,0.06 -0.04,0.1 -0.09,0.1l-0.34 0c-0.05,0 -0.1,-0.04 -0.1,-0.1l0 0c0,-0.05 0.05,-0.09 0.1,-0.09l0.34 0c0.05,0 0.09,0.04 0.09,0.09l0 0z"/>
   <path class="fil5" d="M4.98 5.47l0.41 0 0 -1.93 -0.41 0 0 1.93z"/>
   <path class="fil5" d="M5.42 5.99c0,0.13 -0.1,0.23 -0.23,0.23 -0.13,0 -0.24,-0.1 -0.24,-0.23 0,-0.13 0.11,-0.24 0.24,-0.24 0.13,0 0.23,0.11 0.23,0.24z"/>
   <path class="fil6" d="M6.11 7.86c0,-0.13 -0.11,-0.24 -0.25,-0.24l0 0c0.14,0 0.25,-0.11 0.25,-0.25 0,-0.13 -0.11,-0.24 -0.25,-0.24 0.14,0 0.25,-0.11 0.25,-0.25 0,-0.13 -0.11,-0.24 -0.25,-0.24l-0.67 0 0 1.44 -0.71 0c0.17,0.24 0.42,0.39 0.71,0.39 0.27,0 0.52,-0.14 0.69,-0.37 0.13,-0.01 0.23,-0.11 0.23,-0.24z"/>
   <path class="fil4" d="M4.51 6.64c-0.13,0 -0.24,0.11 -0.24,0.24 0,0.14 0.11,0.25 0.24,0.25 -0.13,0 -0.24,0.11 -0.24,0.24 0,0.14 0.11,0.25 0.24,0.25 -0.13,0 -0.24,0.11 -0.24,0.24 0,0.14 0.11,0.25 0.24,0.25l0.68 0 0 -1.47 -0.68 0z"/>
   <path class="fil1" d="M4.71 6.33c0.07,0.08 0.07,0.2 0,0.27l0 0c-0.08,0.07 -0.19,0.07 -0.27,0l-0.43 -0.43c-0.07,-0.08 -0.07,-0.19 0,-0.27l0 0c0.07,-0.07 0.19,-0.07 0.27,0l0.43 0.43z"/>
   <path class="fil1" d="M4.71 6.86c0.07,0.07 0.07,0.19 0,0.26l0 0c-0.08,0.07 -0.19,0.07 -0.27,0l-0.43 -0.43c-0.07,-0.07 -0.07,-0.19 0,-0.26l0 0c0.07,-0.08 0.19,-0.08 0.27,0l0.43 0.43z"/>
   <path class="fil1" d="M4.71 7.38c0.07,0.07 0.07,0.19 0,0.26l0 0c-0.08,0.08 -0.19,0.08 -0.27,0l-0.43 -0.43c-0.07,-0.07 -0.07,-0.19 0,-0.26l0 0c0.07,-0.07 0.19,-0.07 0.27,0l0.43 0.43z"/>
   <path class="fil1" d="M4.71 7.91c0.07,0.07 0.07,0.19 0,0.26l0 0c-0.08,0.08 -0.19,0.08 -0.27,0l-0.43 -0.43c-0.07,-0.07 -0.07,-0.19 0,-0.26l0 0c0.07,-0.07 0.19,-0.07 0.27,0l0.43 0.43z"/>
   <path class="fil1" d="M6.33 5.6c0,-0.1 -0.08,-0.19 -0.18,-0.19 -0.11,0 -0.19,0.09 -0.19,0.19l0 1.05 0.37 -0.01 0 -1.04z"/>
  </g>
 </g>
</svg>
