<?xml version="1.0" encoding="UTF-8"?>
<!DOCTYPE svg PUBLIC "-//W3C//DTD SVG 1.0//EN" "http://www.w3.org/TR/2001/REC-SVG-20010904/DTD/svg10.dtd">
<!-- Creator: CorelDRAW 2018 -->
<svg xmlns="http://www.w3.org/2000/svg" xml:space="preserve" width="100px" height="100px" version="1.0" style="shape-rendering:geometricPrecision; text-rendering:geometricPrecision; image-rendering:optimizeQuality; fill-rule:evenodd; clip-rule:evenodd"
viewBox="0 0 10.09 10.09"
 xmlns:xlink="http://www.w3.org/1999/xlink">
 <defs>
  <style type="text/css">
   <![CDATA[
    .fil1 {fill:#00B3FF;fill-rule:nonzero}
    .fil9 {fill:#1E1E1E;fill-rule:nonzero}
    .fil5 {fill:#3C3C3B;fill-rule:nonzero}
    .fil2 {fill:#66D1FF;fill-rule:nonzero}
    .fil7 {fill:#E2E3E4;fill-rule:nonzero}
    .fil0 {fill:#E2E3E4;fill-rule:nonzero}
    .fil8 {fill:#F9B59D;fill-rule:nonzero}
    .fil10 {fill:#FF6800;fill-rule:nonzero}
    .fil11 {fill:#FFA466;fill-rule:nonzero}
    .fil3 {fill:#FFCAB3;fill-rule:nonzero}
    .fil4 {fill:#FFDFD1;fill-rule:nonzero}
    .fil6 {fill:white;fill-rule:nonzero}
   ]]>
  </style>
 </defs>
 <g id="Camada_x0020_1">
  <metadata id="CorelCorpID_0Corel-Layer"/>
  <g id="_594601360">
   <path class="fil0" d="M10.09 5.04c0,2.79 -2.26,5.05 -5.05,5.05 -2.78,0 -5.04,-2.26 -5.04,-5.05 0,-2.78 2.26,-5.04 5.04,-5.04 2.79,0 5.05,2.26 5.05,5.04z"/>
   <path class="fil1" d="M8.02 6.5l-0.45 0 0 0.24 -0.23 0.57 -0.19 -0.68 -0.19 0.69 -0.23 -0.58 0 -0.24 -0.45 0c-0.41,0 -0.74,0.33 -0.74,0.73l0 0.54 2.97 0c0.14,0 0.25,-0.11 0.25,-0.25l0 -0.29c0,-0.4 -0.33,-0.73 -0.74,-0.73z"/>
   <path class="fil2" d="M3.78 6.5l-0.45 0 0 0.24 -0.23 0.57 -0.19 -0.68 -0.19 0.69 -0.23 -0.58 0 -0.24 -0.45 0c-0.41,0 -0.74,0.33 -0.74,0.73l0 0.29c0,0.14 0.12,0.25 0.25,0.25l2.97 0 0 -0.54c0,-0.4 -0.33,-0.73 -0.74,-0.73z"/>
   <path class="fil3" d="M7.54 4.95c-0.16,0 -0.35,0.15 -0.45,0.26l0.06 1.22c0.43,0 0.78,-0.53 0.83,-0.98 0.01,-0.03 0.01,-0.07 0.01,-0.1l0 -0.19c-0.04,-0.11 -0.32,-0.21 -0.45,-0.21z"/>
   <path class="fil4" d="M7.81 4.54c-0.37,0.26 -0.84,0.41 -1.33,0.41 -0.06,0 -0.12,0 -0.17,0 -0.01,0.03 -0.01,0.07 -0.01,0.1l0 0.3c0,0.03 0,0.07 0.01,0.1 0.05,0.45 0.4,0.98 0.83,0.98 0.01,0 0.01,0 0.01,0l0 -0.55c0.06,0 0.09,-0.05 0.09,-0.1l0 -0.55c0,0 0.01,-0.01 0.03,-0.03 0.06,-0.06 0.18,-0.18 0.32,-0.18 0.28,0 0.4,0.14 0.4,0.14l0 -0.11c0,-0.19 -0.07,-0.37 -0.18,-0.51z"/>
   <path class="fil5" d="M8.06 4.34c-0.2,-0.28 -0.53,-0.47 -0.91,-0.47 -0.59,0 -1.07,0.46 -1.1,1.04 0,0.02 0,0.04 0,0.06l0 0.23c0,0.14 0.11,0.25 0.25,0.25l0.01 0c-0.01,-0.03 -0.01,-0.07 -0.01,-0.1l0 -0.3c0,-0.03 0,-0.07 0.01,-0.1 0.05,0 0.11,0 0.17,0 0.49,0 0.96,-0.15 1.34,-0.41 0,0 0,0 -0.01,0 0.11,0.14 0.18,0.32 0.18,0.51l0 0.3c0,0.03 0,0.07 -0.01,0.1l0.02 0c0.14,0 0.26,-0.11 0.26,-0.25l0 -0.23c0,-0.23 -0.08,-0.45 -0.2,-0.63z"/>
   <path class="fil6" d="M7.57 6.74l0 -0.24 0 0c-0.12,0.08 -0.26,0.13 -0.42,0.13l0.19 0.68 0.14 -0.35 0.09 -0.22 0 0z"/>
   <path class="fil3" d="M3.31 4.95c-0.17,0 -0.36,0.15 -0.46,0.26l0.06 1.22c0.43,0 0.78,-0.53 0.83,-0.98 0.01,-0.03 0.01,-0.07 0.01,-0.1l0 -0.19c-0.04,-0.11 -0.32,-0.21 -0.44,-0.21z"/>
   <path class="fil4" d="M3.58 4.54c-0.38,0.26 -0.85,0.41 -1.34,0.41 -0.06,0 -0.12,0 -0.17,0 -0.01,0.03 -0.01,0.07 -0.01,0.1l0 0.3c0,0.03 0,0.07 0.01,0.1 0.05,0.45 0.4,0.98 0.83,0.98 0.01,0 0.01,0 0.01,0l0 -0.55c0.06,0 0.09,-0.05 0.09,-0.1l0 -0.55c0,0 0.01,-0.01 0.03,-0.03 0.06,-0.06 0.19,-0.18 0.32,-0.18 0.28,0 0.4,0.14 0.4,0.14l0 -0.11c0,-0.19 -0.07,-0.37 -0.17,-0.51z"/>
   <path class="fil5" d="M3.82 4.34c-0.2,-0.28 -0.53,-0.47 -0.91,-0.47 -0.59,0 -1.07,0.46 -1.1,1.04 0,0.02 0,0.04 0,0.06l0 0.23c0,0.14 0.11,0.25 0.25,0.25l0.01 0c-0.01,-0.03 -0.01,-0.07 -0.01,-0.1l0 -0.3c0,-0.03 0,-0.07 0.01,-0.1 0.05,0 0.11,0 0.17,0 0.49,0 0.96,-0.15 1.34,-0.41 0,0 0,0 0,0 0.1,0.14 0.17,0.32 0.17,0.51l0 0.3c0,0.03 0,0.07 -0.01,0.1l0.02 0c0.14,0 0.26,-0.11 0.26,-0.25l0 -0.23c0,-0.23 -0.07,-0.45 -0.2,-0.63z"/>
   <path class="fil6" d="M2.5 6.5l-0.01 0 0 0.24 0.09 0.22 0.14 0.36 0.19 -0.69c-0.15,0 -0.3,-0.05 -0.41,-0.13z"/>
   <path class="fil6" d="M5.52 6.57l-0.49 -0.49 0.28 1 0.21 -0.51z"/>
   <path class="fil7" d="M4.54 6.57l0.21 0.53 0.28 -1.02 -0.49 0.49z"/>
   <path class="fil8" d="M5.61 3.61c-0.24,0 -0.52,0.21 -0.66,0.38l0.08 1.8c0.64,-0.01 1.16,-0.79 1.23,-1.45 0.01,-0.05 0.01,-0.1 0.01,-0.15l0 -0.28c-0.07,-0.17 -0.48,-0.3 -0.66,-0.3z"/>
   <path class="fil3" d="M6.01 2.99c-0.56,0.39 -1.24,0.62 -1.97,0.62 -0.09,0 -0.17,-0.01 -0.26,-0.01 0,0.05 -0.01,0.1 -0.01,0.15l0 0.44c0,0.05 0.01,0.1 0.01,0.15 0.08,0.67 0.6,1.45 1.24,1.45 0.01,0 0.01,0 0.01,0l0 -0.82c0.08,0 0.14,-0.08 0.14,-0.15l0 -0.8c0,0 0.01,-0.02 0.04,-0.06 0.08,-0.08 0.27,-0.25 0.47,-0.25 0.41,0 0.59,0.2 0.59,0.2l0 -0.16c0,-0.29 -0.1,-0.55 -0.26,-0.76z"/>
   <path class="fil9" d="M6.37 2.7c-0.29,-0.42 -0.78,-0.7 -1.34,-0.7 -0.87,0 -1.58,0.69 -1.63,1.55 0,0.03 0,0.06 0,0.09l0 0.32c0,0.21 0.17,0.38 0.38,0.38l0 0c0,-0.05 -0.01,-0.1 -0.01,-0.15l0 -0.44c0,-0.05 0.01,-0.1 0.01,-0.15 0.09,0 0.17,0.01 0.26,0.01 0.73,0 1.41,-0.23 1.97,-0.62 0,0 0,0 0,0 0.16,0.21 0.26,0.47 0.26,0.76l0 0.44c0,0.05 0,0.1 -0.01,0.15l0.03 0c0.21,0 0.38,-0.17 0.38,-0.38l0 -0.32c0,-0.35 -0.11,-0.67 -0.3,-0.94z"/>
   <path class="fil6" d="M4.42 5.89l-0.01 0 0 0.36 0.13 0.32 0.49 -0.49c-0.23,0 -0.44,-0.07 -0.61,-0.19z"/>
   <path class="fil7" d="M5.65 6.25l0 0 0 -0.36 0 0c-0.18,0.12 -0.39,0.19 -0.62,0.19l0.49 0.49 0.13 -0.32z"/>
   <path class="fil10" d="M6.32 5.89l-0.67 0 0 0.36 -0.34 0.83 -0.28 -1 -0.28 1.02 -0.34 -0.85 -0.5 0.5 1.02 1.02 2.48 0 0 -0.79c0,-0.6 -0.49,-1.09 -1.09,-1.09z"/>
   <path class="fil10" d="M4.41 5.89l-0.36 0 0.36 0.36 0 -0.36z"/>
   <path class="fil11" d="M3.91 6.75l0.5 -0.5 -0.36 -0.36 -0.31 0c-0.6,0 -1.09,0.49 -1.09,1.09l0 0.79 2.28 0 -1.02 -1.02z"/>
   <path class="fil11" d="M5.31 6.36l-0.28 0.28 -0.28 -0.28 0.28 -0.28 0.28 0.28z"/>
  </g>
 </g>
</svg>
