<?xml version="1.0" encoding="UTF-8"?>
<!DOCTYPE svg PUBLIC "-//W3C//DTD SVG 1.0//EN" "http://www.w3.org/TR/2001/REC-SVG-20010904/DTD/svg10.dtd">
<!-- Creator: CorelDRAW 2018 -->
<svg xmlns="http://www.w3.org/2000/svg" xml:space="preserve" width="150px" height="88px" version="1.0" style="shape-rendering:geometricPrecision; text-rendering:geometricPrecision; image-rendering:optimizeQuality; fill-rule:evenodd; clip-rule:evenodd"
viewBox="0 0 8.63 5.08"
 xmlns:xlink="http://www.w3.org/1999/xlink"
 enable-background="new 0 0 64 64">
 <defs>
  <style type="text/css">
   <![CDATA[
    .fil4 {fill:none}
    .fil2 {fill:#004A97}
    .fil1 {fill:#006AC9}
    .fil3 {fill:#023563}
    .fil0 {fill:white}
   ]]>
  </style>
   <clipPath id="id0">
    <path d="M0.44 0l7.76 0c0.24,0 0.43,0.2 0.43,0.44l0 4.21c0,0.24 -0.19,0.43 -0.43,0.43l-7.76 0c-0.24,0 -0.44,-0.19 -0.44,-0.43l0 -4.21c0,-0.24 0.2,-0.44 0.44,-0.44z"/>
   </clipPath>
 </defs>
 <g id="Camada_x0020_1">
  <metadata id="CorelCorpID_0Corel-Layer"/>
  <path class="fil0" d="M0.44 0l7.76 0c0.24,0 0.43,0.2 0.43,0.44l0 4.21c0,0.24 -0.19,0.43 -0.43,0.43l-7.76 0c-0.24,0 -0.44,-0.19 -0.44,-0.43l0 -4.21c0,-0.24 0.2,-0.44 0.44,-0.44z"/>
  <g style="clip-path:url(#id0)">
   <g id="_595922960">
    <g>
     <g>
      <g>
       <g>
        <g>
         <path id="1" class="fil1" d="M3.43 1.77c0,0.26 0.16,0.48 0.39,0.57l0 -1.15c-0.23,0.09 -0.39,0.31 -0.39,0.58z"/>
        </g>
        <g>
         <path class="fil2" d="M4.26 1.19l0 1.15c0.23,-0.09 0.4,-0.32 0.4,-0.57 0,-0.27 -0.17,-0.49 -0.4,-0.58z"/>
        </g>
        <g>
         <g>
          <path class="fil3" d="M4.26 2.34c0.23,-0.08 0.4,-0.32 0.4,-0.57l-0.4 0.57zm0 0l0 0 0 0z"/>
         </g>
        </g>
        <g>
         <path class="fil3" d="M4.54 0.7l-0.49 0c-0.59,0 -1.07,0.44 -1.07,1.07 0,0.59 0.48,1.06 1.07,1.06l0.49 0c0.59,0 1.12,-0.47 1.12,-1.06 -0.01,-0.63 -0.54,-1.07 -1.12,-1.07zm-0.49 2.04c-0.54,0 -0.97,-0.44 -0.97,-0.97 0,-0.54 0.44,-0.98 0.97,-0.98 0.54,0 0.97,0.44 0.97,0.98 0,0.54 -0.44,0.97 -0.97,0.97z"/>
        </g>
       </g>
       <g>
        <g>
         <path class="fil2" d="M1.88 3.56c0,0.08 0.06,0.09 0.12,0.09 0.24,0 0.32,-0.18 0.32,-0.35 0,-0.21 -0.13,-0.36 -0.35,-0.36 -0.04,0 -0.07,0 -0.08,0.01l0 0.61 -0.01 0zm-0.11 -0.53c0,-0.11 -0.06,-0.1 -0.11,-0.1l0 -0.02c0.05,0 0.09,0 0.13,0 0.05,0 0.11,0 0.2,0 0.29,0 0.44,0.19 0.44,0.39 0,0.11 -0.06,0.4 -0.46,0.4 -0.06,0 -0.11,0 -0.16,0 -0.05,0 -0.1,0 -0.16,0l0 -0.03c0.07,-0.01 0.11,-0.01 0.11,-0.09l0 -0.55 0.01 0z"/>
        </g>
       </g>
       <g>
        <g>
         <g>
          <path class="fil2" d="M2.61 3c-0.03,0 -0.06,-0.02 -0.06,-0.06 0,-0.02 0.03,-0.05 0.06,-0.05 0.02,0 0.05,0.03 0.05,0.05 0,0.04 -0.03,0.06 -0.05,0.06l0 0zm-0.12 0.66l0.02 0c0.04,0 0.05,0 0.05,-0.03l0 -0.31c0,-0.05 -0.01,-0.06 -0.06,-0.08l0 -0.02c0.05,-0.01 0.11,-0.03 0.12,-0.04 0.01,-0.01 0.02,-0.01 0.02,-0.01 0.01,0 0.01,0.01 0.01,0.02l0 0.43c0,0.03 0.02,0.03 0.06,0.03l0.02 0 0 0.03c-0.04,0 -0.08,0 -0.12,0 -0.05,0 -0.08,0 -0.12,0l0 -0.02z"/>
         </g>
        </g>
       </g>
       <g>
        <g>
         <path class="fil2" d="M2.83 3.33c0,-0.05 -0.01,-0.05 -0.07,-0.08l0 -0.02c0.05,-0.01 0.09,-0.03 0.15,-0.05 0,0 0.01,0 0.01,0.01l0 0.08c0.06,-0.05 0.12,-0.09 0.19,-0.09 0.1,0 0.13,0.07 0.13,0.16l0 0.29c0,0.03 0.03,0.03 0.06,0.03l0.02 0 0 0.03c-0.04,0 -0.08,0 -0.12,0 -0.04,0 -0.08,0 -0.12,0l0 -0.03 0.02 0c0.03,0 0.05,0 0.05,-0.03l0 -0.29c0,-0.06 -0.05,-0.1 -0.11,-0.1 -0.03,0 -0.09,0.03 -0.12,0.05l0 0.34c0,0.03 0.02,0.03 0.06,0.03l0.01 0 0 0.03c-0.04,0 -0.07,0 -0.12,0 -0.04,0 -0.07,0 -0.12,0l0 -0.03 0.03 0c0.03,0 0.05,0 0.05,-0.03l0 -0.3z"/>
        </g>
       </g>
       <g>
        <g>
         <path class="fil2" d="M3.6 3.34c0.03,0 0.04,-0.01 0.04,-0.02 0,-0.06 -0.04,-0.1 -0.1,-0.1 -0.07,0 -0.12,0.05 -0.13,0.12l0.19 0zm-0.2 0.04c0,0.01 0,0.02 0,0.07 0.01,0.1 0.08,0.19 0.17,0.19 0.06,0 0.11,-0.03 0.15,-0.07l0.02 0.01c-0.05,0.07 -0.12,0.13 -0.21,0.13 -0.18,0 -0.21,-0.17 -0.21,-0.25 0,-0.22 0.14,-0.28 0.22,-0.28 0.1,0 0.19,0.06 0.19,0.18 0,0.01 0,0.02 0,0.02l-0.01 0 -0.32 0z"/>
        </g>
       </g>
       <g>
        <g>
         <path class="fil2" d="M3.76 3.66l0.03 0c0.03,0 0.05,0 0.05,-0.03l0 -0.32c0,-0.03 -0.04,-0.04 -0.06,-0.05l0 -0.02c0.09,-0.03 0.13,-0.06 0.14,-0.06 0.01,0 0.01,0 0.01,0.02l0 0.1 0 0c0.02,-0.04 0.07,-0.11 0.14,-0.11 0.03,0 0.06,0.02 0.06,0.06 0,0.03 -0.01,0.06 -0.05,0.06 -0.03,0 -0.03,-0.03 -0.08,-0.03 -0.01,0 -0.08,0.03 -0.08,0.1l0 0.26c0,0.04 0.02,0.04 0.05,0.04l0.06 0 0 0.02c-0.06,0 -0.11,0 -0.15,0 -0.05,0 -0.1,0 -0.14,0l0 -0.04 0.02 0z"/>
        </g>
       </g>
       <g>
        <g>
         <path class="fil2" d="M4.19 3.53c0.02,0.08 0.06,0.14 0.15,0.14 0.07,0 0.09,-0.04 0.09,-0.08 0,-0.13 -0.25,-0.08 -0.25,-0.27 0,-0.06 0.06,-0.15 0.18,-0.15 0.03,0 0.08,0.01 0.12,0.04l0.01 0.11 -0.02 0c-0.01,-0.07 -0.05,-0.11 -0.12,-0.11 -0.05,0 -0.09,0.02 -0.09,0.07 0,0.13 0.26,0.1 0.26,0.27 0,0.08 -0.06,0.15 -0.2,0.15 -0.04,0 -0.09,-0.01 -0.14,-0.03l0 -0.13 0.01 -0.01z"/>
        </g>
       </g>
       <g>
        <g>
         <path class="fil2" d="M5.53 3.1l-0.03 0c-0.01,-0.12 -0.11,-0.18 -0.24,-0.18 -0.12,0 -0.31,0.09 -0.31,0.36 0,0.23 0.16,0.39 0.33,0.39 0.11,0 0.21,-0.08 0.22,-0.2l0.03 0.01 -0.03 0.16c-0.05,0.03 -0.17,0.06 -0.24,0.06 -0.27,0 -0.43,-0.17 -0.43,-0.42 0,-0.23 0.2,-0.39 0.43,-0.39 0.09,0 0.18,0.03 0.26,0.06l0.01 0.15z"/>
        </g>
       </g>
       <g>
        <g>
         <path class="fil2" d="M5.57 3.66l0.02 0c0.03,0 0.05,0 0.05,-0.03l0 -0.63c0,-0.08 -0.02,-0.08 -0.06,-0.08l0 -0.02c0.04,-0.02 0.1,-0.04 0.12,-0.05 0.01,-0.01 0.02,-0.01 0.03,-0.01 0.01,0 0.01,0.01 0.01,0.02l0 0.78c0,0.03 0.02,0.03 0.06,0.03l0.01 0 0 0.03c-0.03,0 -0.07,0 -0.12,0 -0.04,0 -0.07,0 -0.12,0l0 -0.04z"/>
        </g>
       </g>
       <g>
        <g>
         <path class="fil2" d="M6.29 3.63c0,0.01 0.01,0.01 0.04,0.01 0.01,0 0.03,0 0.04,0l0 0.03c-0.05,0.01 -0.14,0.03 -0.16,0.03l-0.01 0 0 -0.09c-0.07,0.05 -0.12,0.09 -0.2,0.09 -0.06,0 -0.12,-0.04 -0.12,-0.13l0 -0.29c0,-0.03 -0.01,-0.06 -0.07,-0.06l0 -0.02c0.05,0 0.13,-0.01 0.15,-0.01 0.01,0 0.01,0.01 0.01,0.03l0 0.3c0,0.03 0,0.12 0.09,0.12 0.04,0 0.09,-0.02 0.14,-0.06l0 -0.3c0,-0.03 -0.05,-0.04 -0.1,-0.05l0 -0.01c0.11,-0.01 0.17,-0.02 0.18,-0.02 0,0 0,0.01 0,0.02l0 0.41 0.01 0z"/>
        </g>
       </g>
       <g>
        <g>
         <path class="fil2" d="M6.52 3.56c0,0.04 0.04,0.11 0.12,0.11 0.12,0 0.17,-0.12 0.17,-0.21 0,-0.12 -0.1,-0.23 -0.18,-0.23 -0.05,0 -0.08,0.03 -0.11,0.05l0 0.28 0 0zm0 -0.3c0.04,-0.04 0.1,-0.08 0.17,-0.08 0.13,0 0.2,0.11 0.2,0.24 0,0.15 -0.11,0.29 -0.26,0.29 -0.09,0 -0.13,-0.02 -0.16,-0.04l-0.03 0.03 -0.03 -0.01c0.01,-0.07 0.02,-0.13 0.02,-0.2l0 -0.48c0,-0.08 -0.02,-0.08 -0.06,-0.09l0 -0.01c0.04,-0.02 0.09,-0.04 0.12,-0.05 0.01,-0.01 0.02,-0.01 0.03,-0.01 0,0 0,0.01 0,0.01l0 0.4 0 0z"/>
        </g>
       </g>
       <g>
        <g>
         <path class="fil1" d="M1.66 4.34l0.01 0c0.03,0 0.04,0 0.04,-0.04l0 -0.31c0,-0.04 -0.02,-0.04 -0.04,-0.04l-0.01 0 0 -0.01c0.03,0 0.06,0 0.1,0 0.03,0 0.07,0 0.09,0l0 0.01 -0.01 0c-0.02,0 -0.04,0 -0.04,0.04l0 0.31c0,0.04 0.02,0.04 0.04,0.04l0.01 0 0 0.02c-0.02,0 -0.07,0 -0.09,0 -0.03,0 -0.07,0 -0.09,0l0 -0.02 -0.01 0z"/>
        </g>
       </g>
       <g>
        <g>
         <g>
          <path class="fil1" d="M1.85 4.36l0 -0.02 -0.01 0c-0.02,0 -0.05,0 -0.05,-0.04l0 -0.31c0,-0.04 0.03,-0.04 0.05,-0.04l0.01 0 0 -0.01c-0.02,0 -0.06,0 -0.09,0 -0.03,0 -0.06,0 -0.09,0l0 0.01 0.01 0c0.03,0 0.05,0 0.05,0.04l0 0.31c0,0.04 -0.02,0.04 -0.05,0.04l-0.01 0 0 0.02c0.03,0 0.06,0 0.09,0 0.02,0 0.06,0 0.09,0l0 0zm0 0c-0.02,0 -0.07,0 -0.09,0 -0.03,0 -0.07,0 -0.09,0l0 0 0 0 0 -0.02 0 0 0 0 0.01 0c0.03,0 0.04,0 0.04,-0.04l0 -0.31c0,-0.04 -0.01,-0.04 -0.04,-0.04l-0.02 0 0 0 0 -0.01 0 0c0.03,0 0.06,0 0.1,0 0.03,0 0.07,0 0.09,0l0 0 0 0 0 0.01 0 0 -0.01 0c-0.02,0 -0.04,0 -0.04,0.04l0 0.31c0,0.04 0.02,0.04 0.04,0.04l0.01 0 0 0 0 0.02 0 0z"/>
         </g>
        </g>
       </g>
       <g>
        <g>
         <path class="fil1" d="M2.27 4.24l0 0 0 -0.24c0,-0.05 -0.03,-0.06 -0.05,-0.06l-0.02 0 0 -0.01c0.03,0 0.06,0 0.09,0 0.02,0 0.05,0 0.08,0l0 0.01 -0.01 0c-0.03,0 -0.05,0.01 -0.05,0.08l0 0.28c0,0.01 0,0.04 0,0.06l-0.03 0 -0.32 -0.36 0 0.25c0,0.05 0.01,0.07 0.06,0.07l0.01 0 0 0.02c-0.02,0 -0.05,0 -0.08,0 -0.02,0 -0.05,0 -0.08,0l0 0 0.01 0c0.04,0 0.05,-0.03 0.05,-0.08l0 -0.26c0,-0.03 -0.03,-0.05 -0.05,-0.05l0 0 0 -0.01c0.02,0 0.05,0 0.07,0 0.01,0 0.03,0 0.05,0l0.27 0.3z"/>
        </g>
       </g>
       <g>
        <g>
         <path class="fil1" d="M2.27 4.24l0 0 0 0 0 0zm0 0l0 0 0 0zm0.01 0.12l0.02 0c0,-0.01 0,-0.04 0,-0.06l0 -0.27c0,-0.08 0.03,-0.08 0.06,-0.08l0.01 0 0 -0.01c-0.03,0 -0.06,0 -0.07,0 -0.03,0 -0.05,0 -0.09,0l0 0.01 0.01 0c0.02,0 0.06,0.01 0.06,0.06l0 0.23 0 0 0 0 -0.27 -0.3c-0.02,0 -0.04,0 -0.06,0 -0.02,0 -0.04,0 -0.06,0l0 0.01 0 0c0.03,0 0.06,0.03 0.06,0.06l0 0.26c0,0.05 -0.01,0.08 -0.06,0.08l0 0 0 0.01c0.02,0 0.05,0 0.07,0 0.03,0 0.05,0 0.08,0l0 -0.01 -0.02 0c-0.05,0 -0.06,-0.02 -0.06,-0.08l0 -0.26 0.32 0.35zm0.03 0.01l-0.03 0 -0.31 -0.34 0 0.25c0,0.05 0.01,0.07 0.05,0.07l0.02 0 0 0 0 0.01 0 0c-0.03,0 -0.05,0 -0.08,0 -0.02,0 -0.05,0 -0.08,0l0 0 0 0 0 -0.02 0 0 0.01 0c0.04,0 0.05,-0.03 0.05,-0.08l0 -0.26c0,-0.03 -0.03,-0.05 -0.05,-0.05l-0.02 0 0 0 0 -0.01 0 0c0.02,0 0.05,0 0.07,0 0.01,0 0.03,0 0.06,0l0.26 0.3 0 -0.23c0,-0.05 -0.03,-0.05 -0.05,-0.05l-0.01 0 0 0 0 -0.02 0 0c0.03,0 0.06,0 0.09,0 0.02,0 0.05,0 0.08,0l0 0 0 0 0 0.02 0 0 -0.01 0c-0.03,0 -0.05,0 -0.05,0.08l0 0.27c0,0.02 0,0.04 0,0.06l0 0 0 0z"/>
        </g>
       </g>
       <g>
        <g>
         <path class="fil1" d="M2.46 3.96c-0.04,0 -0.05,0.01 -0.06,0.05l-0.02 0c0,-0.01 0.01,-0.03 0.01,-0.05 0,-0.02 0,-0.03 0,-0.05l0.02 0c0.01,0.02 0.02,0.02 0.03,0.02l0.32 0c0.02,0 0.03,0 0.03,-0.02l0.02 0c0,0.02 -0.01,0.03 -0.01,0.05 0,0.02 0,0.04 0,0.05l-0.01 0.01c0,-0.02 0,-0.06 -0.05,-0.06l-0.1 0 0 0.33c0,0.04 0.02,0.05 0.05,0.05l0.01 0 0 0.02c-0.03,0 -0.07,0 -0.1,0 -0.04,0 -0.08,0 -0.11,0l0 -0.02 0.01 0c0.04,0 0.05,0 0.05,-0.05l0 -0.33 -0.09 0z"/>
        </g>
       </g>
       <g>
        <g>
         <path class="fil1" d="M2.7 4.36c-0.03,0 -0.07,0 -0.1,0 -0.04,0 -0.08,0 -0.11,0l0 0 0 0 0 -0.02 0 0 0.01 0c0.04,0 0.05,0 0.05,-0.05l0 -0.33 -0.09 0 0 0 0 0 0.1 0 0 0.33c0,0.05 -0.01,0.05 -0.05,0.05l-0.01 0 0 0.02c0.03,0 0.07,0 0.11,0 0.02,0 0.06,0 0.09,0l0 -0.01 -0.01 0c-0.02,0 -0.05,-0.01 -0.05,-0.05l0 -0.33 0.1 0c0.05,0 0.05,0.03 0.06,0.06l0.01 -0.01c0,-0.02 0,-0.03 0,-0.05 0,-0.02 0,-0.03 0.01,-0.04l-0.01 0c0,0.01 -0.01,0.01 -0.03,0.01l-0.32 0 0 0c-0.02,0 -0.03,0 -0.03,-0.01l-0.03 0c0,0.01 0,0.03 0,0.05 0,0.02 -0.01,0.03 -0.01,0.05l0.02 0c0.01,-0.04 0.02,-0.06 0.06,-0.05l0 0 0 0c-0.04,0 -0.04,0.01 -0.05,0.05l0 0 0 0 -0.04 0 0 0c0,-0.02 0.01,-0.03 0.01,-0.05 0,-0.02 0,-0.04 0,-0.05l0 0 0 0 0.02 0 0 0c0,0.01 0.02,0.01 0.03,0.01l0 0 0.32 0c0.02,0 0.03,0 0.03,-0.01l0 0 0 0 0.02 0 0 0c0,0.01 -0.01,0.03 -0.01,0.05 0,0.02 0,0.03 0,0.05l0 0 0 0 -0.02 0 0 0c0,-0.03 0,-0.06 -0.05,-0.06l-0.09 0 0 0.33c0,0.04 0.02,0.05 0.05,0.05l0.02 0 0 0 -0.01 0.01 0 0z"/>
        </g>
       </g>
       <g>
        <g>
         <path class="fil1" d="M2.83 4.34l0.01 0c0.02,0 0.04,0 0.04,-0.04l0 -0.31c0,-0.04 -0.03,-0.04 -0.04,-0.04l-0.01 0 0 -0.01c0.03,0 0.1,0 0.15,0 0.06,0 0.12,0 0.16,0 0,0.02 0,0.06 0,0.09l-0.02 0c0,-0.04 -0.01,-0.07 -0.08,-0.07l-0.08 0 0 0.16 0.08 0c0.03,0 0.04,-0.01 0.05,-0.05l0.01 0c0,0.03 0,0.05 0,0.07 0,0.03 0,0.04 0,0.07l-0.01 0c0,-0.03 -0.01,-0.06 -0.05,-0.06l-0.08 0 0 0.15c0,0.04 0.03,0.04 0.08,0.04 0.07,0 0.1,-0.01 0.12,-0.08l0.02 0c-0.01,0.04 -0.02,0.07 -0.02,0.1 -0.04,0 -0.11,0 -0.16,0 -0.05,0 -0.13,0 -0.16,0l0 -0.02 -0.01 0z"/>
        </g>
       </g>
       <g>
        <g>
         <g>
          <path class="fil1" d="M3.16 4.36c0,-0.04 0,-0.06 0.01,-0.1l-0.01 0c-0.01,0.07 -0.05,0.08 -0.12,0.08 -0.04,0 -0.08,0 -0.08,-0.04l0 -0.15 0.08 0c0.04,0 0.04,0.03 0.05,0.06l0.01 0c0,-0.03 0,-0.04 0,-0.07 0,-0.02 0,-0.04 0,-0.07l-0.01 0c0,0.04 -0.02,0.05 -0.05,0.05l-0.08 0 0 -0.16 0.08 0c0.06,0 0.08,0.04 0.08,0.07l0.02 0c0,-0.02 0,-0.04 0,-0.06 0,-0.01 0,-0.02 0,-0.03 -0.04,0 -0.1,0 -0.16,0 -0.05,0 -0.11,0 -0.14,0l0 0.02 0.01 0c0.02,0 0.05,0 0.05,0.04l0 0.31c0,0.04 -0.03,0.04 -0.05,0.04l-0.01 0 0 0.01c0.03,0 0.1,0 0.16,0 0.04,0 0.11,0 0.16,0l0 0zm0 0c-0.05,0 -0.12,0 -0.17,0 -0.05,0 -0.13,0 -0.16,0l0 0 0 0 0 -0.02 0 0 0 0 0.01 0c0.02,0 0.04,0 0.04,-0.04l0 -0.31c0,-0.03 -0.02,-0.04 -0.04,-0.04l-0.01 0 0 0 0 -0.01 0 0c0.03,0 0.1,0 0.15,0 0.06,0 0.12,0 0.16,0l0 0 0 0c0,0 0,0.01 0,0.03 0,0.02 0,0.04 0,0.06l0 0 0 0 -0.02 0.01 0 0c0,-0.04 -0.01,-0.07 -0.07,-0.07l-0.08 0 0 0.15 0.07 0c0.03,0 0.04,-0.01 0.04,-0.05l0 0 0 0 0.02 0 0 0c0,0.03 0,0.05 0,0.07 0,0.03 0,0.04 0,0.07l0 0 0 0 -0.02 0 0 0c0,-0.03 -0.01,-0.06 -0.04,-0.06l-0.07 0 0 0.14c0,0.03 0.03,0.03 0.07,0.03 0.07,0 0.1,0 0.12,-0.07l0 0 0 0 0.01 0.01 0 0c0,0.04 -0.01,0.07 -0.01,0.1l0 0 0 0z"/>
         </g>
        </g>
       </g>
       <g id="_595935728">
        <g>
         <path class="fil1" d="M3.34 4.14l0.02 0c0.06,0 0.1,-0.02 0.1,-0.09 0,-0.05 -0.04,-0.09 -0.09,-0.09 -0.02,0 -0.03,0 -0.03,0l0 0.18zm-0.08 -0.14c0,-0.05 -0.03,-0.05 -0.04,-0.05l-0.01 0 0 -0.01c0.01,0 0.06,0 0.09,0 0.04,0 0.07,0 0.1,0 0.07,0 0.14,0.01 0.14,0.11 0,0.05 -0.03,0.08 -0.08,0.11l0.1 0.15c0.02,0.03 0.02,0.04 0.06,0.04l0 0.01c-0.02,0 -0.04,0 -0.06,0 -0.02,0 -0.04,0 -0.06,0 -0.04,-0.06 -0.09,-0.12 -0.13,-0.19l-0.04 0 0 0.13c0,0.04 0.02,0.05 0.05,0.05l0.01 0 0 0.01c-0.04,0 -0.07,0 -0.11,0 -0.02,0 -0.06,0 -0.08,0l0 -0.02 0.01 0c0.02,0 0.04,-0.01 0.04,-0.04l0 -0.3 0.01 0z"/>
        </g>
       </g>
       <g id="_595935128">
        <g>
         <path class="fil1" d="M3.37 4.14c0.06,0 0.09,-0.02 0.09,-0.09 0,-0.05 -0.03,-0.09 -0.08,-0.09 -0.02,0 -0.03,0 -0.04,0l0 0.18 0.03 0zm-0.03 0l0 0 0 -0.19 0 0c0,0 0.01,0 0.03,0 0.05,0 0.09,0.04 0.09,0.1 0,0.07 -0.03,0.09 -0.09,0.09l-0.03 0zm0 0.02l0.04 0 0 0c0.04,0.07 0.08,0.14 0.13,0.2 0.01,0 0.03,0 0.06,0 0.01,0 0.04,0 0.06,0l0 -0.02c-0.03,0 -0.05,-0.01 -0.06,-0.04l-0.11 -0.16 0 0c0.06,-0.02 0.09,-0.05 0.09,-0.1 0,-0.09 -0.07,-0.1 -0.15,-0.1 -0.03,0 -0.06,0 -0.09,0 -0.03,0 -0.07,0 -0.09,0l0 0.01 0 0c0.02,0 0.05,0 0.05,0.05l0 0.31c0,0.03 -0.03,0.04 -0.05,0.04l-0.01 0 0 0.01c0.02,0 0.06,0 0.08,0 0.04,0 0.07,0 0.11,0l0 -0.01 -0.01 0c-0.03,0 -0.05,0 -0.05,-0.05l0 -0.14 0 0zm0.29 0.2c-0.02,0 -0.05,0 -0.06,0 -0.02,0 -0.04,0 -0.06,0 -0.05,-0.06 -0.09,-0.12 -0.13,-0.19l-0.04 0 0 0.13c0,0.04 0.02,0.04 0.06,0.04l0.01 0 0 0 0 0.02 0 0c-0.03,0 -0.07,0 -0.1,0 -0.03,0 -0.06,0 -0.09,0l0 0 0 0 0 -0.02 0 0 0.01 0c0.03,0 0.05,-0.01 0.05,-0.04l0 -0.3c0,-0.05 -0.03,-0.05 -0.05,-0.05l-0.02 0 0 0 0 -0.01 0 0c0.01,0 0.06,0 0.09,0 0.04,0 0.07,0 0.1,0 0.07,0 0.14,0.02 0.14,0.11 0,0.05 -0.03,0.08 -0.08,0.11l0.1 0.15c0.02,0.03 0.02,0.04 0.06,0.04l0 0 0 0 0.01 0.01 0 0z"/>
        </g>
       </g>
       <g id="_595934936">
        <g>
         <path class="fil1" d="M4.04 4.24l0 0 0 -0.24c0,-0.05 -0.04,-0.06 -0.05,-0.06l-0.02 0 0 -0.01c0.03,0 0.06,0 0.09,0 0.02,0 0.05,0 0.07,0l0 0.01 -0.01 0c-0.02,0 -0.05,0.01 -0.05,0.08l0 0.28c0,0.01 0,0.04 0,0.06l-0.02 0 -0.32 -0.36 0 0.25c0,0.05 0.01,0.07 0.06,0.07l0.02 0 0 0.02c-0.03,0 -0.05,0 -0.08,0 -0.03,0 -0.05,0 -0.09,0l0 0 0.01 0c0.05,0 0.05,-0.03 0.05,-0.08l0 -0.26c0,-0.03 -0.02,-0.05 -0.06,-0.05l0 0 0 -0.01c0.02,0 0.04,0 0.06,0 0.02,0 0.04,0 0.06,0l0.28 0.3z"/>
        </g>
       </g>
       <g id="_595933808">
        <g>
         <path class="fil1" d="M4.04 4.24l0 0 0 0 0 0zm0 0l0 0 0 0zm0.01 0.12l0.01 0c0,-0.01 0,-0.04 0,-0.06l0 -0.27c0,-0.08 0.04,-0.08 0.06,-0.08l0.01 0 0 -0.01c-0.02,0 -0.05,0 -0.07,0 -0.02,0 -0.05,0 -0.08,0l0 0.01 0.01 0c0.01,0 0.06,0.01 0.06,0.06l0 0.23 0 0 0 0 -0.28 -0.3c-0.01,0 -0.03,0 -0.05,0 -0.02,0 -0.04,0 -0.07,0l0 0.01 0.01 0c0.03,0 0.06,0.03 0.06,0.06l0 0.26c0,0.05 -0.02,0.08 -0.06,0.08l-0.01 0 0 0.01c0.03,0 0.05,0 0.08,0 0.03,0 0.05,0 0.08,0l0 -0.01 -0.01 0c-0.05,0 -0.06,-0.02 -0.06,-0.08l0 -0.26 0.31 0.35zm0.02 0.01l-0.02 0 -0.31 -0.34 0 0.25c0,0.05 0.01,0.07 0.05,0.07l0.02 0 0 0 0 0.01 0 0c-0.03,0 -0.05,0 -0.08,0 -0.03,0 -0.05,0 -0.09,0l0 0 0 0 0 -0.02 0 0 0.01 0c0.05,0 0.05,-0.03 0.05,-0.08l0 -0.26c0,-0.03 -0.02,-0.05 -0.05,-0.05l-0.01 0 0 0 0 -0.01 0 0c0.02,0 0.05,0 0.06,0 0.02,0 0.04,0 0.06,0l0.27 0.3 0 -0.23c0,-0.05 -0.03,-0.05 -0.05,-0.05l-0.02 0 0 0 0 -0.02 0 0c0.03,0 0.06,0 0.09,0 0.02,0 0.05,0 0.07,0l0 0 0 0 0 0.02 0 0 0 0c-0.03,0 -0.06,0 -0.06,0.08l0 0.27c0.01,0.02 0.01,0.04 0.01,0.06l0 0 0 0z"/>
        </g>
       </g>
       <g id="_595934288">
        <g>
         <path class="fil1" d="M4.32 4l0 0 -0.06 0.18 0.11 0 -0.05 -0.18zm-0.08 0.27c-0.01,0.02 -0.02,0.03 -0.02,0.05 0,0.02 0.02,0.02 0.04,0.02l0.01 0 0 0.02c-0.03,0 -0.05,0 -0.08,0 -0.02,0 -0.04,0 -0.07,0l0 -0.02 0 0c0.03,0 0.05,-0.02 0.06,-0.04l0.09 -0.29c0.01,-0.02 0.02,-0.05 0.03,-0.07 0.01,-0.01 0.04,-0.02 0.06,-0.03 0,0 0,0 0,0 0,0 0,0 0,0 0,0.01 0,0.01 0.01,0.02l0.12 0.32c0.01,0.02 0.02,0.05 0.03,0.06 0.01,0.02 0.02,0.03 0.04,0.03l0 0 0 0.02c-0.02,0 -0.05,0 -0.08,0 -0.04,0 -0.06,0 -0.1,0l0 -0.02 0.01 0c0.02,0 0.03,0 0.03,-0.02 0,-0.01 0,-0.02 0,-0.04l-0.03 -0.07 -0.14 0 -0.01 0.06z"/>
        </g>
       </g>
       <g id="_595933352">
        <g>
         <path class="fil1" d="M4.32 4l0 0 0 0zm-0.05 0.18l0.11 0 -0.06 -0.18 -0.05 0.18zm-0.01 0l0.06 -0.18 0 0 0 0 0 0 0 0 0 0 0 0 0 0 0.06 0.18 -0.12 0zm0.12 0.18c0.04,0 0.06,0 0.09,0 0.02,0 0.05,0 0.08,0l0 -0.02 0 0c-0.01,0 -0.03,-0.01 -0.04,-0.03 -0.01,-0.01 -0.02,-0.03 -0.02,-0.06l-0.11 -0.31c0,-0.01 0,-0.01 -0.01,-0.02 0,0 0,0 0,0l0 0c0,0 0,0 0,0 -0.01,0.01 -0.03,0.02 -0.05,0.02 0,0.03 -0.02,0.06 -0.02,0.08l-0.1 0.28c-0.01,0.03 -0.03,0.05 -0.06,0.05l0 0 0 0.01c0.02,0 0.04,0 0.06,0 0.03,0 0.05,0 0.07,0l0 -0.01 0 0c-0.02,0 -0.05,0 -0.05,-0.03 0,-0.01 0.01,-0.02 0.02,-0.05l0 0 0 0 0.01 -0.07 0.15 0 0.02 0.07c0.01,0.02 0.01,0.03 0.01,0.04 0,0.02 -0.02,0.02 -0.04,0.02l0 0 0 0.03 -0.01 0zm0.18 0c-0.02,0 -0.05,0 -0.08,0 -0.04,0 -0.06,0 -0.1,0l0 0 0 0 0 -0.02 0 0 0.01 0c0.02,0 0.03,0 0.03,-0.02 0,-0.01 0,-0.02 0,-0.04l-0.03 -0.07 -0.14 0 -0.01 0.06c-0.01,0.02 -0.02,0.03 -0.02,0.04 0,0.02 0.02,0.02 0.04,0.02l0.01 0 0 0 0 0.02 0 0c-0.03,0 -0.05,0 -0.08,0 -0.02,0 -0.04,0 -0.07,0l0 0 0 0 0 -0.01 0 0 0 0c0.03,0 0.05,-0.02 0.06,-0.04l0.09 -0.28c0.01,-0.02 0.02,-0.05 0.03,-0.08 0.01,0 0.04,-0.01 0.05,-0.02 0,0 0,0 0.01,0 0,0 0,0 0,0 0,0.01 0,0.01 0.01,0.02l0.12 0.31c0.01,0.03 0.02,0.05 0.03,0.06 0.01,0.02 0.02,0.03 0.03,0.03l0.01 0 0 0 0 0.02 0 0z"/>
        </g>
       </g>
       <g id="_595933112">
        <g>
         <path class="fil1" d="M4.59 3.96c-0.05,0 -0.05,0.01 -0.06,0.05l-0.02 0c0,-0.01 0.01,-0.03 0.01,-0.05 0,-0.02 0,-0.03 0,-0.05l0.02 0c0,0.02 0.01,0.02 0.03,0.02l0.32 0c0.01,0 0.03,0 0.03,-0.02l0.02 0c0,0.02 -0.01,0.03 -0.01,0.05 0,0.02 0,0.04 0,0.05l-0.02 0.01c0,-0.02 -0.01,-0.06 -0.04,-0.06l-0.1 0 0 0.33c0,0.04 0.01,0.05 0.05,0.05l0.01 0 0 0.02c-0.03,0 -0.07,0 -0.11,0 -0.03,0 -0.07,0 -0.1,0l0 -0.02 0.01 0c0.03,0 0.05,0 0.05,-0.05l0 -0.33 -0.09 0z"/>
        </g>
       </g>
       <g id="_595932320">
        <g>
         <path class="fil1" d="M4.83 4.36c-0.03,0 -0.07,0 -0.11,0 -0.03,0 -0.07,0 -0.1,0l0 0 0 0 0 -0.02 0 0 0.01 0c0.03,0 0.04,0 0.05,-0.05l0 -0.33 -0.09 0 0 0 0 0 0.1 0 0 0.33c0,0.05 -0.02,0.05 -0.05,0.05l-0.01 0 0 0.02c0.03,0 0.07,0 0.1,0 0.03,0 0.07,0 0.1,0l0 -0.01 -0.01 0c-0.03,0 -0.05,-0.01 -0.05,-0.05l0 -0.33 0.1 0c0.04,0 0.04,0.03 0.05,0.06l0.02 -0.01c0,-0.02 0,-0.03 0,-0.05 0,-0.02 0,-0.03 0.01,-0.04l-0.01 0c0,0.01 -0.02,0.01 -0.04,0.01l-0.31 0 0 0c-0.02,0 -0.03,0 -0.04,-0.01l-0.01 0c0,0.01 0,0.03 0,0.05 0,0.02 0,0.03 0,0.05l0.01 0c0.01,-0.04 0.02,-0.06 0.06,-0.05l0 0 0 0c-0.04,0 -0.04,0.01 -0.05,0.05l0 0 0 0 -0.02 0 0 0c0,-0.02 0,-0.03 0,-0.05 0,-0.02 0,-0.04 0,-0.05l0 0 0 0 0.02 0 0 0c0,0.01 0.02,0.01 0.04,0.01 0,0 0,0 0,0l0.31 0c0.02,0 0.03,0 0.04,-0.01l0 0 0 0 0.01 0 0 0c0,0.01 0,0.03 0,0.05 0,0.02 0,0.03 0,0.05l0 0 0 0 -0.03 0.01 0 0c0,-0.03 0,-0.06 -0.04,-0.06l-0.1 0 0 0.32c0,0.05 0.02,0.06 0.05,0.06l0.02 0 0 0 -0.03 0 0 0z"/>
        </g>
       </g>
       <g id="_595932848">
        <g>
         <path class="fil1" d="M4.96 4.34l0 0c0.03,0 0.05,0 0.05,-0.04l0 -0.31c0,-0.04 -0.03,-0.04 -0.05,-0.04l0 0 0 -0.01c0.02,0 0.06,0 0.09,0 0.03,0 0.07,0 0.09,0l0 0.01 0 0c-0.03,0 -0.05,0 -0.05,0.04l0 0.31c0,0.04 0.03,0.04 0.05,0.04l0 0 0 0.02c-0.02,0 -0.06,0 -0.09,0 -0.03,0 -0.07,0 -0.09,0l0 -0.02 0 0z"/>
        </g>
       </g>
       <g id="_595928648">
        <g>
         <g>
          <path class="fil1" d="M5.14 4.36l0 -0.02 0 0c-0.03,0 -0.06,0 -0.06,-0.04l0 -0.31c0,-0.04 0.03,-0.04 0.06,-0.04l0 0 0 -0.01c-0.02,0 -0.06,0 -0.09,0 -0.03,0 -0.06,0 -0.09,0l0 0.01 0.01 0c0.03,0 0.05,0 0.05,0.04l0 0.31c0,0.04 -0.02,0.04 -0.05,0.04l-0.01 0 0 0.02c0.03,0 0.06,0 0.09,0 0.03,0 0.06,0 0.09,0l0 0zm0 0c-0.02,0 -0.06,0 -0.09,0 -0.03,0 -0.07,0 -0.09,0l0 0 0 0 0 -0.02 0 0 0 0 0.01 0c0.03,0 0.05,0 0.05,-0.04l0 -0.31c0,-0.03 -0.02,-0.04 -0.05,-0.04l-0.01 0 0 0 0 -0.01 0 0c0.03,0 0.06,0 0.1,0 0.03,0 0.07,0 0.09,0l0 0 0 0 0 0.01 0 0 -0.01 0c-0.02,0 -0.04,0 -0.04,0.04l0 0.31c0,0.03 0.02,0.04 0.04,0.04l0.01 0 0 0 -0.01 0.02 0 0z"/>
         </g>
        </g>
       </g>
       <g>
        <g id="_595928336">
         <g>
          <path class="fil1" d="M5.4 4.34c0.12,0 0.14,-0.1 0.14,-0.2 0,-0.08 -0.05,-0.2 -0.15,-0.2 -0.11,0 -0.13,0.1 -0.13,0.18 -0.01,0.12 0.04,0.22 0.14,0.22l0 0zm-0.01 -0.41c0.13,0 0.23,0.07 0.23,0.21 0,0.14 -0.1,0.23 -0.23,0.23 -0.13,0 -0.23,-0.08 -0.23,-0.22 0,-0.13 0.1,-0.22 0.23,-0.22z"/>
         </g>
        </g>
       </g>
       <g>
        <g>
         <g>
          <path class="fil1" d="M5.25 4.12c0,-0.08 0.03,-0.18 0.14,-0.18 0.11,0 0.16,0.12 0.16,0.2 0,0.09 -0.02,0.2 -0.15,0.2l0 0 0 0c0.12,0 0.14,-0.1 0.14,-0.19 0,-0.09 -0.05,-0.2 -0.15,-0.2 -0.11,0 -0.13,0.1 -0.14,0.17 0.01,0.12 0.05,0.22 0.15,0.22l0 0 0 0c-0.1,0.01 -0.15,-0.1 -0.15,-0.22l0 0zm-0.09 0.03c0,-0.13 0.1,-0.23 0.23,-0.23l0 0 0 0c-0.13,0.01 -0.22,0.1 -0.23,0.23 0.01,0.13 0.1,0.21 0.23,0.21 0.13,0 0.23,-0.09 0.23,-0.23 0,-0.13 -0.1,-0.2 -0.23,-0.2l0 0 0 0c0.13,0 0.24,0.08 0.24,0.21 0,0.15 -0.1,0.24 -0.23,0.24 -0.14,-0.01 -0.24,-0.09 -0.24,-0.23z"/>
         </g>
        </g>
       </g>
       <g>
        <g>
         <path class="fil1" d="M6.04 4.24l0 0 0 -0.24c0,-0.05 -0.04,-0.06 -0.06,-0.06l-0.01 0 0 -0.01c0.02,0 0.06,0 0.08,0 0.03,0 0.05,0 0.08,0l0 0.01 -0.01 0c-0.02,0 -0.05,0.01 -0.05,0.08l0 0.28c0,0.01 0,0.04 0,0.06l-0.03 0 -0.31 -0.36 0 0.25c0,0.05 0.01,0.07 0.06,0.07l0.01 0 0 0.02c-0.03,0 -0.06,0 -0.08,0 -0.03,0 -0.05,0 -0.09,0l0 0 0.01 0c0.04,0 0.05,-0.03 0.05,-0.08l0 -0.26c0,-0.03 -0.02,-0.05 -0.05,-0.05l-0.01 0 0 -0.01c0.03,0 0.05,0 0.07,0 0.02,0 0.04,0 0.05,0l0.29 0.3z"/>
        </g>
       </g>
       <g>
        <g>
         <path class="fil1" d="M6.04 4.24l0 0 0 0 0 0zm0 0l0 0 0 0zm0 0.12l0.02 0c0,-0.01 0,-0.04 0,-0.06l0 -0.27c0,-0.08 0.04,-0.08 0.06,-0.08l0.01 0 0 -0.01c-0.03,0 -0.05,0 -0.07,0 -0.02,0 -0.05,0 -0.08,0l0 0.01 0 0c0.02,0 0.06,0.01 0.06,0.06l0 0.23 0 0 0 0 -0.27 -0.3c-0.02,0 -0.03,0 -0.05,0 -0.03,0 -0.04,0 -0.07,0l0 0.01 0.01 0c0.02,0 0.06,0.03 0.06,0.06l0 0.26c0,0.05 -0.02,0.08 -0.06,0.08l-0.01 0 0 0.01c0.03,0 0.05,0 0.08,0 0.02,0 0.05,0 0.07,0l0 -0.01 0 0c-0.06,0 -0.06,-0.02 -0.06,-0.08l0 -0.26 0.3 0.35zm0.03 0.01l-0.03 0 -0.3 -0.34 0 0.25c0,0.05 0,0.07 0.05,0.07l0.01 0 0 0 0 0.01 0 0c-0.02,0 -0.05,0 -0.07,0 -0.03,0 -0.05,0 -0.09,0l0 0 0 0 0 -0.02 0 0 0.01 0c0.04,0 0.05,-0.03 0.05,-0.08l0 -0.26c0,-0.03 -0.02,-0.05 -0.05,-0.05l-0.01 0 0 0 0 -0.01 0 0c0.03,0 0.05,0 0.07,0 0.02,0 0.03,0 0.06,0l0.27 0.3 0 -0.23c0,-0.05 -0.04,-0.05 -0.06,-0.05l-0.01 0 0 0 0 -0.02 0 0c0.02,0 0.06,0 0.08,0 0.03,0 0.05,0 0.08,0l0 0 0 0 0 0.02 0 0 -0.01 0c-0.02,0 -0.05,0 -0.05,0.08l0 0.27c0,0.02 0,0.04 0,0.06l0 0 0 0z"/>
        </g>
       </g>
       <g>
        <g>
         <path class="fil1" d="M6.32 4l0 0 -0.06 0.18 0.12 0 -0.06 -0.18zm-0.09 0.27c-0.01,0.02 -0.01,0.03 -0.01,0.05 0,0.02 0.02,0.02 0.04,0.02l0.01 0 0 0.02c-0.03,0 -0.05,0 -0.08,0 -0.03,0 -0.04,0 -0.07,0l0 -0.02 0 0c0.03,0 0.04,-0.02 0.05,-0.04l0.1 -0.29c0.01,-0.02 0.01,-0.05 0.02,-0.07 0.02,-0.01 0.05,-0.02 0.06,-0.03 0,0 0,0 0.01,0 0,0 0,0 0,0 0,0.01 0,0.01 0.01,0.02l0.11 0.31c0.01,0.02 0.02,0.05 0.03,0.06 0.01,0.04 0.02,0.04 0.04,0.04l0 0 0 0.02c-0.03,0 -0.05,0 -0.09,0 -0.02,0 -0.06,0 -0.09,0l0 -0.02 0.01 0c0.02,0 0.03,0 0.03,-0.02 0,-0.01 -0.01,-0.02 -0.01,-0.04l-0.02 -0.07 -0.14 0 -0.01 0.06z"/>
        </g>
       </g>
       <g>
        <g>
         <path class="fil1" d="M6.32 4l0 0 0 0zm-0.05 0.18l0.1 0 -0.05 -0.17 -0.05 0.17zm-0.01 0l0.06 -0.18 0 0 0 0 0 0 0 0 0 0 0 0 0 0 0.06 0.18 -0.12 0zm0.12 0.18c0.03,0 0.06,0 0.08,0 0.03,0 0.06,0 0.09,0l0 -0.02 0 0c-0.02,0 -0.03,-0.01 -0.04,-0.03 -0.01,-0.01 -0.02,-0.04 -0.03,-0.06l-0.11 -0.31c0,-0.01 0,-0.01 -0.01,-0.02 0,0 0,0 0,0l0 0c0,0 0,0 0,0 -0.01,0.01 -0.03,0.02 -0.05,0.02 0,0.03 -0.02,0.06 -0.03,0.08l-0.09 0.28c-0.01,0.03 -0.03,0.05 -0.05,0.05l0 0 0 0.01c0.02,0 0.04,0 0.06,0 0.02,0 0.05,0 0.07,0l0 -0.01 0 0c-0.02,0 -0.05,0 -0.05,-0.03 0,-0.01 0,-0.02 0.01,-0.05l0 0 0 0 0.02 -0.07 0.15 0 0.02 0.07c0.01,0.02 0.01,0.03 0.01,0.04 0,0.02 -0.03,0.02 -0.04,0.02l0 0 0 0.03 -0.01 0zm0.18 0c-0.03,0 -0.05,0 -0.09,0 -0.02,0 -0.06,0 -0.09,0l0 0 0 0 0 -0.02 0 0 0.01 0c0.01,0 0.03,0 0.03,-0.02 0,-0.01 -0.01,-0.02 -0.01,-0.04l-0.02 -0.07 -0.14 0 -0.02 0.06c-0.01,0.02 -0.01,0.03 -0.01,0.04 0,0.02 0.02,0.02 0.04,0.02l0.01 0 0 0 0 0.02 0 0c-0.03,0 -0.05,0 -0.08,0 -0.03,0 -0.04,0 -0.07,0l0 0 0 0 0 -0.01 0 0 0 0c0.03,0 0.04,-0.02 0.05,-0.04l0.1 -0.28c0.01,-0.02 0.01,-0.05 0.02,-0.08 0.02,0 0.05,-0.01 0.06,-0.02 0,0 0,0 0.01,0 0,0 0.01,0 0.01,0 0,0.01 0,0.01 0.01,0.02l0.11 0.31c0.01,0.03 0.02,0.05 0.03,0.06 0,0.02 0.01,0.03 0.03,0.03l0.01 0 0 0 0 0.02 0 0z"/>
        </g>
       </g>
       <g>
        <g>
         <path class="fil1" d="M6.71 4.3c0,0.03 0.02,0.04 0.04,0.04 0.02,0 0.05,0 0.07,0 0.03,0 0.06,-0.02 0.07,-0.04 0,-0.01 0.01,-0.03 0.01,-0.04l0.02 0c-0.01,0.04 -0.02,0.07 -0.03,0.1 -0.05,0 -0.11,0 -0.16,0 -0.05,0 -0.11,0 -0.16,0l0 -0.02 0.01 0c0.02,0 0.04,0 0.04,-0.04l0 -0.32c0,-0.04 -0.03,-0.04 -0.04,-0.04l-0.01 0 0 -0.01c0.03,0 0.06,0 0.09,0 0.04,0 0.06,0 0.1,0l0 0.01 -0.02 0c-0.03,0 -0.04,0 -0.04,0.04l0 0.32 0.01 0z"/>
        </g>
       </g>
       <g>
        <g>
         <g>
          <path class="fil1" d="M6.89 4.36c0.01,-0.04 0.02,-0.07 0.03,-0.1l-0.01 0c0,0.02 -0.01,0.03 -0.02,0.04 0,0.02 -0.03,0.04 -0.06,0.04 -0.01,0 -0.03,0 -0.04,0 -0.01,0 -0.03,0 -0.03,0 -0.02,0 -0.05,-0.01 -0.05,-0.04l0 -0.31c0,-0.04 0.02,-0.04 0.05,-0.04l0 0 0 -0.01c-0.03,0 -0.06,0 -0.09,0 -0.03,0 -0.06,0 -0.09,0l0 0.01 0 0c0.03,0 0.06,0 0.06,0.04l0 0.31c0,0.05 -0.03,0.05 -0.06,0.05l0 0 0 0.01c0.05,0 0.1,0 0.16,0 0.05,0 0.1,0 0.15,0l0 0zm0.01 0c-0.05,0 -0.11,0 -0.16,0 -0.05,0 -0.11,0 -0.16,0l0 0 0 0 0 -0.02 0 0 0 0c0.03,0 0.05,0 0.05,-0.04l0 -0.31c0,-0.03 -0.02,-0.04 -0.05,-0.04l0 0 0 0 0 -0.01 0 0c0.03,0 0.06,0 0.09,0 0.03,0 0.06,0 0.09,0l0 0 0 0 0 0.01 0 0 -0.01 0c-0.03,0 -0.05,0 -0.05,0.04l0 0.31c0,0.03 0.02,0.03 0.04,0.04 0.01,0 0.02,0 0.03,0 0.02,0 0.04,0 0.05,0 0.02,0 0.04,-0.02 0.06,-0.04 0.01,-0.01 0.01,-0.02 0.01,-0.04l0 0 0 0 0.02 0 0 0c0.01,0.04 0,0.07 -0.01,0.1l0 0 0 0z"/>
         </g>
        </g>
       </g>
       <g>
        <g>
         <g>
          <path class="fil1" d="M6.9 3.98l0 0c0.02,0 0.02,-0.01 0.02,-0.02 0,-0.01 -0.01,-0.02 -0.01,-0.02l-0.01 0 0 0.04zm-0.01 0.03l0 0c0,0 0,0 0,-0.01l0 -0.05c0,-0.01 0,-0.01 0,-0.01l0 0 0.03 0c0.01,0 0.03,0.01 0.03,0.02 0,0.01 -0.01,0.02 -0.02,0.02l0.01 0.02c0.01,0 0.01,0.01 0.01,0.01l0 0 -0.01 0c0,0 0,-0.01 -0.02,-0.02l-0.01 0 0 0.01c0,0.01 0,0 0.01,0.01l0 0 -0.03 0zm0.02 0.02c0.03,0 0.05,-0.03 0.05,-0.05 0,-0.03 -0.02,-0.05 -0.05,-0.05 -0.02,0 -0.05,0.02 -0.05,0.05 0.01,0.02 0.03,0.05 0.05,0.05l0 0zm0 -0.11c0.03,0 0.07,0.02 0.07,0.07 0,0.04 -0.03,0.06 -0.07,0.06 -0.04,0 -0.07,-0.03 -0.07,-0.06 0,-0.04 0.04,-0.07 0.07,-0.07z"/>
         </g>
        </g>
       </g>
      </g>
      <g>
       <path class="fil2" d="M5.46 1.6c0,-0.27 -0.11,-0.52 -0.3,-0.72 -0.18,-0.11 -0.39,-0.18 -0.62,-0.18l-0.49 0c-0.59,0 -1.07,0.44 -1.07,1.07 0,0.27 0.1,0.51 0.26,0.7 0.17,0.12 0.38,0.21 0.6,0.24 -0.44,-0.09 -0.76,-0.48 -0.76,-0.95 0,-0.54 0.44,-0.98 0.97,-0.98 0.54,0 0.97,0.44 0.97,0.98 0,0.53 -0.42,0.96 -0.95,0.97 0.02,0 0.03,0 0.05,0 0.73,0.01 1.34,-0.5 1.34,-1.13z"/>
      </g>
      <g>
       <path class="fil1" d="M4.04 0.7c-0.59,0 -1.07,0.44 -1.07,1.07 0,0.26 0.09,0.5 0.25,0.68 0.01,0.01 0.02,0.02 0.03,0.03 0.17,0.12 0.37,0.2 0.59,0.24 -0.44,-0.1 -0.76,-0.48 -0.76,-0.95 0,-0.54 0.44,-0.98 0.97,-0.98 0.54,0 0.97,0.44 0.97,0.98 0,0.53 -0.42,0.96 -0.95,0.97 0.02,0 0.03,0 0.05,0 0.04,0 0.08,0 0.12,-0.01 0.57,-0.14 0.93,-0.72 0.83,-1.32 -0.05,-0.29 -0.19,-0.53 -0.39,-0.7 -0.04,-0.01 -0.08,-0.01 -0.13,-0.01l-0.51 0z"/>
      </g>
     </g>
    </g>
   </g>
  </g>
  <path class="fil4" d="M0.44 0l7.76 0c0.24,0 0.43,0.2 0.43,0.44l0 4.21c0,0.24 -0.19,0.43 -0.43,0.43l-7.76 0c-0.24,0 -0.44,-0.19 -0.44,-0.43l0 -4.21c0,-0.24 0.2,-0.44 0.44,-0.44z"/>
 </g>
</svg>
