<?xml version="1.0" encoding="UTF-8"?>
<!DOCTYPE svg PUBLIC "-//W3C//DTD SVG 1.0//EN" "http://www.w3.org/TR/2001/REC-SVG-20010904/DTD/svg10.dtd">
<!-- Creator: CorelDRAW 2018 -->
<svg xmlns="http://www.w3.org/2000/svg" xml:space="preserve" width="158px" height="39px" version="1.0" style="shape-rendering:geometricPrecision; text-rendering:geometricPrecision; image-rendering:optimizeQuality; fill-rule:evenodd; clip-rule:evenodd"
viewBox="0 0 30.9 7.62"
 xmlns:xlink="http://www.w3.org/1999/xlink">
 <defs>
  <style type="text/css">
   <![CDATA[
    .fil1 {fill:#201E1E}
    .fil3 {fill:white}
    .fil0 {fill:#201E1E;fill-rule:nonzero}
    .fil2 {fill:white;fill-rule:nonzero}
   ]]>
  </style>
 </defs>
 <g id="Camada_x0020_1">
  <metadata id="CorelCorpID_0Corel-Layer"/>
  <g id="_843410696">
   <path class="fil0" d="M1.31 5.84l0.05 -0.47 0.18 0c0.14,0 0.23,-0.03 0.27,-0.07 0.04,-0.04 0.06,-0.15 0.08,-0.32l0.24 -2.48c0.02,-0.17 0.01,-0.28 -0.02,-0.32 -0.03,-0.04 -0.11,-0.07 -0.25,-0.07l-0.19 0 0.05 -0.47 1.69 0 -0.04 0.47 -0.23 0c-0.14,0 -0.23,0.03 -0.26,0.07 -0.04,0.05 -0.07,0.15 -0.09,0.32l-0.09 0.93 1.37 0 0.09 -0.93c0.01,-0.17 0.01,-0.28 -0.02,-0.32 -0.03,-0.04 -0.12,-0.07 -0.26,-0.07l-0.22 0 0.05 -0.47 1.69 0 -0.05 0.47 -0.18 0c-0.14,0 -0.23,0.03 -0.27,0.07 -0.04,0.05 -0.07,0.15 -0.08,0.32l-0.24 2.48c-0.02,0.17 -0.01,0.27 0.02,0.32 0.03,0.04 0.11,0.07 0.26,0.07l0.18 0 -0.05 0.47 -1.69 0 0.05 -0.47 0.22 0c0.14,0 0.23,-0.03 0.26,-0.07 0.04,-0.04 0.07,-0.15 0.09,-0.32l0.1 -1.04 -1.37 0 -0.1 1.04c-0.01,0.17 -0.01,0.27 0.02,0.32 0.03,0.04 0.12,0.07 0.26,0.07l0.22 0 -0.05 0.47 -1.69 0z"/>
   <path class="fil0" d="M7.26 4.19l0.4 0c-0.08,0.52 -0.25,0.93 -0.5,1.22 -0.26,0.29 -0.58,0.43 -0.96,0.43 -0.23,0 -0.44,-0.04 -0.62,-0.13 -0.17,-0.1 -0.33,-0.23 -0.46,-0.42 -0.14,-0.2 -0.24,-0.44 -0.3,-0.7 -0.06,-0.27 -0.07,-0.55 -0.04,-0.85 0.03,-0.31 0.1,-0.59 0.2,-0.84 0.11,-0.26 0.25,-0.49 0.44,-0.7 0.16,-0.18 0.34,-0.32 0.54,-0.42 0.19,-0.09 0.39,-0.14 0.6,-0.14 0.17,0 0.33,0.03 0.47,0.1 0.14,0.06 0.28,0.17 0.41,0.3l0.13 -0.35 0.34 0 -0.16 1.63 -0.36 0c0,-0.38 -0.07,-0.68 -0.21,-0.88 -0.13,-0.21 -0.33,-0.32 -0.57,-0.32 -0.29,0 -0.53,0.15 -0.73,0.44 -0.19,0.29 -0.31,0.69 -0.36,1.21 -0.05,0.48 0,0.86 0.14,1.13 0.13,0.26 0.35,0.4 0.65,0.4 0.23,0 0.42,-0.1 0.59,-0.29 0.16,-0.19 0.28,-0.46 0.36,-0.82z"/>
   <path class="fil1" d="M1.8 2.29c-0.07,0.13 -0.15,0.25 -0.21,0.4 -0.06,0.14 -0.12,0.3 -0.16,0.48 -0.05,0.17 -0.09,0.35 -0.1,0.54 -0.01,0.19 0,0.39 0.04,0.62 0.04,0.23 0.11,0.49 0.24,0.78 0.13,0.29 0.33,0.6 0.53,0.85 0.21,0.24 0.43,0.43 0.69,0.59 0.27,0.16 0.59,0.3 0.89,0.39 0.31,0.09 0.6,0.13 0.89,0.12 0.28,0 0.56,-0.04 0.83,-0.12 0.27,-0.07 0.54,-0.18 0.74,-0.28 0.21,-0.11 0.36,-0.22 0.47,-0.31 0.12,-0.09 0.2,-0.16 0.26,-0.22 0.06,-0.06 0.09,-0.11 0.13,-0.15 -0.05,0.09 -0.1,0.18 -0.19,0.31 -0.1,0.12 -0.24,0.28 -0.39,0.42 -0.14,0.14 -0.3,0.27 -0.49,0.39 -0.19,0.12 -0.42,0.23 -0.67,0.32 -0.25,0.09 -0.53,0.14 -0.76,0.17 -0.23,0.03 -0.42,0.03 -0.6,0.02 -0.19,-0.01 -0.38,-0.03 -0.58,-0.07 -0.19,-0.04 -0.39,-0.1 -0.6,-0.2 -0.21,-0.1 -0.43,-0.25 -0.62,-0.4 -0.19,-0.16 -0.35,-0.32 -0.5,-0.51 -0.15,-0.2 -0.3,-0.43 -0.41,-0.68 -0.11,-0.25 -0.18,-0.51 -0.22,-0.79 -0.04,-0.29 -0.05,-0.59 -0.02,-0.88 0.03,-0.29 0.11,-0.55 0.21,-0.79 0.09,-0.24 0.22,-0.45 0.32,-0.62 0.1,-0.16 0.19,-0.27 0.28,-0.38z"/>
   <path class="fil1" d="M1.82 6.99c-0.11,-0.1 -0.22,-0.21 -0.33,-0.35 -0.12,-0.14 -0.24,-0.31 -0.34,-0.48 -0.1,-0.17 -0.19,-0.35 -0.26,-0.51 -0.07,-0.16 -0.12,-0.32 -0.16,-0.52 -0.04,-0.21 -0.07,-0.47 -0.08,-0.7 -0.02,-0.23 -0.01,-0.45 0.03,-0.67 0.03,-0.22 0.08,-0.44 0.16,-0.65 0.07,-0.21 0.15,-0.41 0.27,-0.6 0.11,-0.2 0.25,-0.4 0.4,-0.58 0.15,-0.18 0.31,-0.34 0.46,-0.47 0.16,-0.13 0.29,-0.24 0.45,-0.33 0.15,-0.1 0.33,-0.18 0.5,-0.26 0.18,-0.08 0.36,-0.14 0.53,-0.19 0.18,-0.05 0.36,-0.08 0.54,-0.1 0.18,-0.02 0.36,-0.03 0.55,-0.03 0.2,0.01 0.4,0.02 0.59,0.05 0.19,0.02 0.36,0.06 0.51,0.11 0.15,0.05 0.29,0.1 0.42,0.16 0.13,0.05 0.25,0.12 0.35,0.18 0.09,0.05 0.16,0.1 0.23,0.15 -0.07,-0.07 -0.14,-0.13 -0.21,-0.19 -0.07,-0.06 -0.14,-0.12 -0.24,-0.19 -0.1,-0.07 -0.23,-0.15 -0.4,-0.24 -0.17,-0.08 -0.37,-0.17 -0.53,-0.23 -0.16,-0.07 -0.27,-0.1 -0.39,-0.13 -0.12,-0.03 -0.24,-0.05 -0.37,-0.07 -0.13,-0.02 -0.27,-0.03 -0.44,-0.03 -0.17,-0.01 -0.37,0 -0.58,0.02 -0.21,0.03 -0.42,0.08 -0.6,0.13 -0.17,0.05 -0.3,0.09 -0.44,0.16 -0.15,0.06 -0.31,0.13 -0.44,0.21 -0.14,0.08 -0.25,0.16 -0.34,0.22 -0.08,0.06 -0.14,0.11 -0.24,0.19 -0.1,0.09 -0.23,0.22 -0.35,0.36 -0.12,0.13 -0.23,0.27 -0.33,0.41 -0.09,0.15 -0.18,0.3 -0.26,0.47 -0.08,0.17 -0.16,0.36 -0.22,0.57 -0.06,0.2 -0.1,0.43 -0.13,0.62 -0.02,0.19 -0.02,0.36 -0.01,0.53 0.01,0.17 0.02,0.36 0.04,0.51 0.03,0.16 0.06,0.29 0.1,0.42 0.04,0.12 0.08,0.24 0.14,0.39 0.06,0.14 0.15,0.3 0.23,0.44 0.08,0.14 0.16,0.26 0.24,0.37 0.08,0.1 0.16,0.2 0.25,0.29 0.08,0.09 0.17,0.17 0.26,0.26 0.1,0.08 0.2,0.17 0.27,0.22 0.08,0.05 0.12,0.06 0.17,0.08z"/>
   <path class="fil2" d="M1.2 5.73l0.04 -0.48 0.19 0c0.14,0 0.23,-0.02 0.26,-0.07 0.04,-0.04 0.07,-0.15 0.09,-0.32l0.24 -2.47c0.01,-0.17 0.01,-0.28 -0.02,-0.32 -0.03,-0.05 -0.12,-0.07 -0.26,-0.07l-0.18 0 0.05 -0.48 1.69 0 -0.05 0.48 -0.22 0c-0.14,0 -0.23,0.02 -0.27,0.07 -0.04,0.04 -0.07,0.15 -0.08,0.32l-0.09 0.93 1.36 0 0.09 -0.93c0.02,-0.17 0.01,-0.28 -0.02,-0.32 -0.03,-0.05 -0.11,-0.07 -0.25,-0.07l-0.22 0 0.04 -0.48 1.69 0 -0.04 0.48 -0.18 0c-0.15,0 -0.24,0.02 -0.27,0.07 -0.04,0.04 -0.07,0.15 -0.09,0.32l-0.24 2.47c-0.01,0.17 -0.01,0.28 0.02,0.32 0.03,0.05 0.12,0.07 0.26,0.07l0.18 0 -0.04 0.48 -1.69 0 0.04 -0.48 0.22 0c0.14,0 0.23,-0.02 0.27,-0.07 0.04,-0.04 0.06,-0.15 0.08,-0.32l0.1 -1.04 -1.36 0 -0.1 1.04c-0.02,0.17 -0.01,0.28 0.02,0.32 0.03,0.05 0.11,0.07 0.26,0.07l0.22 0 -0.05 0.48 -1.69 0z"/>
   <path class="fil2" d="M7.15 4.07l0.4 0c-0.08,0.53 -0.25,0.94 -0.51,1.23 -0.25,0.28 -0.57,0.43 -0.96,0.43 -0.23,0 -0.43,-0.05 -0.61,-0.14 -0.18,-0.09 -0.33,-0.23 -0.46,-0.42 -0.14,-0.2 -0.24,-0.43 -0.3,-0.69 -0.06,-0.27 -0.07,-0.55 -0.04,-0.86 0.03,-0.3 0.09,-0.58 0.2,-0.84 0.11,-0.25 0.25,-0.48 0.43,-0.69 0.17,-0.19 0.35,-0.33 0.54,-0.42 0.19,-0.1 0.4,-0.15 0.61,-0.15 0.17,0 0.32,0.04 0.46,0.1 0.15,0.07 0.28,0.17 0.41,0.31l0.13 -0.35 0.34 0 -0.16 1.62 -0.36 0c0,-0.38 -0.07,-0.67 -0.2,-0.88 -0.14,-0.21 -0.33,-0.31 -0.58,-0.31 -0.29,0 -0.53,0.14 -0.72,0.43 -0.19,0.29 -0.31,0.7 -0.36,1.21 -0.05,0.49 -0.01,0.87 0.13,1.13 0.14,0.27 0.36,0.4 0.65,0.4 0.23,0 0.43,-0.09 0.59,-0.28 0.16,-0.19 0.28,-0.47 0.37,-0.83z"/>
   <path class="fil3" d="M1.68 2.17c-0.07,0.13 -0.14,0.26 -0.2,0.4 -0.07,0.15 -0.12,0.31 -0.17,0.48 -0.04,0.17 -0.08,0.36 -0.1,0.55 -0.01,0.19 0.01,0.38 0.05,0.61 0.04,0.23 0.11,0.5 0.24,0.79 0.13,0.29 0.32,0.6 0.53,0.84 0.2,0.25 0.42,0.43 0.69,0.6 0.26,0.16 0.58,0.3 0.89,0.39 0.3,0.09 0.6,0.12 0.89,0.12 0.28,-0.01 0.55,-0.05 0.82,-0.12 0.27,-0.08 0.54,-0.18 0.75,-0.29 0.21,-0.11 0.35,-0.22 0.47,-0.31 0.11,-0.09 0.2,-0.16 0.25,-0.22 0.06,-0.05 0.1,-0.1 0.13,-0.15 -0.05,0.1 -0.09,0.19 -0.19,0.31 -0.09,0.13 -0.23,0.28 -0.38,0.42 -0.15,0.15 -0.3,0.27 -0.5,0.39 -0.19,0.12 -0.41,0.24 -0.67,0.32 -0.25,0.09 -0.53,0.15 -0.76,0.18 -0.23,0.03 -0.41,0.03 -0.6,0.02 -0.19,-0.01 -0.38,-0.04 -0.57,-0.08 -0.2,-0.04 -0.4,-0.1 -0.61,-0.2 -0.2,-0.1 -0.42,-0.24 -0.61,-0.4 -0.19,-0.15 -0.35,-0.31 -0.51,-0.51 -0.15,-0.2 -0.3,-0.43 -0.41,-0.67 -0.11,-0.25 -0.18,-0.51 -0.22,-0.8 -0.04,-0.28 -0.04,-0.59 -0.01,-0.88 0.03,-0.28 0.1,-0.55 0.2,-0.79 0.1,-0.23 0.22,-0.45 0.33,-0.61 0.1,-0.16 0.19,-0.27 0.27,-0.39z"/>
   <path class="fil3" d="M1.7 6.88c-0.11,-0.11 -0.21,-0.21 -0.33,-0.35 -0.11,-0.14 -0.23,-0.31 -0.33,-0.49 -0.11,-0.17 -0.2,-0.34 -0.27,-0.5 -0.06,-0.17 -0.11,-0.32 -0.15,-0.53 -0.04,-0.2 -0.08,-0.46 -0.09,-0.7 -0.01,-0.23 0,-0.44 0.03,-0.66 0.03,-0.22 0.09,-0.45 0.16,-0.66 0.07,-0.21 0.16,-0.4 0.27,-0.6 0.11,-0.19 0.25,-0.39 0.4,-0.57 0.16,-0.18 0.32,-0.34 0.47,-0.47 0.15,-0.14 0.29,-0.24 0.44,-0.34 0.16,-0.09 0.33,-0.18 0.51,-0.25 0.17,-0.08 0.35,-0.15 0.53,-0.2 0.18,-0.05 0.35,-0.08 0.53,-0.1 0.18,-0.02 0.36,-0.02 0.56,-0.02 0.19,0 0.4,0.02 0.59,0.04 0.19,0.03 0.35,0.07 0.5,0.12 0.16,0.04 0.29,0.09 0.42,0.15 0.13,0.06 0.26,0.13 0.35,0.18 0.1,0.06 0.17,0.1 0.23,0.15 -0.07,-0.06 -0.14,-0.13 -0.21,-0.19 -0.07,-0.06 -0.14,-0.12 -0.24,-0.19 -0.09,-0.07 -0.22,-0.15 -0.39,-0.23 -0.17,-0.09 -0.38,-0.18 -0.54,-0.24 -0.16,-0.06 -0.27,-0.09 -0.38,-0.12 -0.12,-0.03 -0.24,-0.06 -0.37,-0.07 -0.14,-0.02 -0.28,-0.03 -0.45,-0.04 -0.17,0 -0.36,0 -0.57,0.03 -0.21,0.02 -0.43,0.08 -0.6,0.12 -0.18,0.05 -0.3,0.1 -0.45,0.16 -0.14,0.06 -0.3,0.14 -0.44,0.22 -0.13,0.07 -0.25,0.16 -0.33,0.22 -0.09,0.06 -0.15,0.1 -0.24,0.19 -0.1,0.09 -0.23,0.22 -0.35,0.35 -0.12,0.14 -0.23,0.27 -0.33,0.42 -0.1,0.15 -0.18,0.3 -0.27,0.47 -0.08,0.17 -0.15,0.36 -0.21,0.56 -0.06,0.21 -0.11,0.43 -0.13,0.63 -0.02,0.19 -0.02,0.35 -0.02,0.53 0.01,0.17 0.03,0.35 0.05,0.51 0.02,0.16 0.06,0.29 0.1,0.41 0.03,0.13 0.08,0.25 0.14,0.39 0.06,0.14 0.14,0.3 0.22,0.44 0.09,0.14 0.17,0.26 0.25,0.37 0.08,0.11 0.16,0.2 0.24,0.29 0.09,0.09 0.17,0.18 0.27,0.26 0.09,0.09 0.2,0.17 0.27,0.22 0.07,0.05 0.12,0.07 0.16,0.09z"/>
   <path class="fil3" d="M11.54 3.67c0.17,0.04 0.34,0.11 0.46,0.23 0.12,0.13 0.16,0.29 0.16,0.46 0,0.23 -0.07,0.44 -0.27,0.56 -0.23,0.15 -0.63,0.17 -0.9,0.17l-1.47 0 0 -0.31 0.16 0c0.05,0 0.18,-0.01 0.21,-0.04 0.04,-0.04 0.04,-0.15 0.04,-0.2l0 -1.57c0,-0.05 0,-0.17 -0.04,-0.2 -0.03,-0.04 -0.16,-0.04 -0.21,-0.04l-0.16 0 0 -0.32 1.54 0c0.24,0 0.55,0.03 0.75,0.17 0.18,0.11 0.24,0.29 0.24,0.5 0,0.14 -0.03,0.28 -0.13,0.38 -0.1,0.11 -0.24,0.17 -0.38,0.21zm1.26 -0.7c0,-0.05 0,-0.17 -0.04,-0.2 -0.04,-0.04 -0.16,-0.04 -0.22,-0.04l-0.13 0 0 -0.32 1.4 0 0 0.32 -0.18 0c-0.05,0 -0.18,0 -0.21,0.04 -0.04,0.04 -0.05,0.15 -0.05,0.2l0 1.27c0,0.14 0.03,0.3 0.13,0.4 0.11,0.1 0.28,0.12 0.42,0.12 0.15,0 0.31,-0.02 0.42,-0.13 0.1,-0.1 0.14,-0.24 0.14,-0.39l0 -1.27c0,-0.05 -0.01,-0.17 -0.04,-0.2 -0.04,-0.04 -0.17,-0.04 -0.22,-0.04l-0.16 0 0 -0.32 1.23 0 0 0.32 -0.13 0c-0.05,0 -0.17,0 -0.21,0.04 -0.04,0.03 -0.04,0.15 -0.04,0.2l0 1.27c0,0.27 -0.07,0.52 -0.27,0.69 -0.22,0.19 -0.52,0.24 -0.79,0.24 -0.28,0 -0.57,-0.05 -0.78,-0.24 -0.21,-0.17 -0.27,-0.43 -0.27,-0.69l0 -1.27zm4.47 -0.37l0.14 -0.19 0.25 0 0 1.03 -0.32 0 0 -0.01c-0.04,-0.21 -0.12,-0.41 -0.28,-0.56 -0.15,-0.14 -0.34,-0.2 -0.55,-0.2 -0.12,0 -0.26,0.02 -0.36,0.09 -0.09,0.06 -0.13,0.14 -0.13,0.25 0,0.08 0.02,0.15 0.09,0.21 0.07,0.07 0.2,0.1 0.29,0.13l0.54 0.12c0.23,0.05 0.47,0.14 0.64,0.3 0.15,0.15 0.22,0.33 0.22,0.54 0,0.25 -0.09,0.46 -0.28,0.62 -0.21,0.18 -0.46,0.24 -0.73,0.24 -0.15,0 -0.3,-0.03 -0.44,-0.08 -0.16,-0.06 -0.31,-0.15 -0.44,-0.24l-0.09 0.24 -0.28 0 0 -1.11 0.32 0 0 0c0.04,0.23 0.12,0.45 0.29,0.61 0.17,0.15 0.38,0.2 0.6,0.2 0.13,0 0.29,-0.01 0.4,-0.08 0.09,-0.06 0.14,-0.15 0.14,-0.25 0,-0.1 -0.03,-0.18 -0.11,-0.25 -0.08,-0.07 -0.22,-0.12 -0.34,-0.14l-0.43 -0.1c-0.22,-0.06 -0.5,-0.14 -0.67,-0.3 -0.15,-0.13 -0.21,-0.31 -0.21,-0.5 0,-0.24 0.08,-0.45 0.26,-0.61 0.2,-0.17 0.45,-0.23 0.71,-0.23 0.14,0 0.28,0.02 0.41,0.07 0.13,0.05 0.25,0.12 0.36,0.2zm0.75 2.49l0 -0.31 0.18 0c0.05,0 0.17,-0.01 0.21,-0.04 0.04,-0.04 0.04,-0.15 0.04,-0.2l0 -1.57c0,-0.05 0,-0.17 -0.04,-0.2 -0.04,-0.04 -0.16,-0.04 -0.21,-0.04l-0.18 0 0 -0.32 1.45 0 0 0.32 -0.17 0c-0.05,0 -0.18,0 -0.22,0.04 -0.04,0.03 -0.04,0.15 -0.04,0.2l0 1.57c0,0.05 0,0.16 0.04,0.2 0.04,0.03 0.17,0.04 0.22,0.04l0.17 0 0 0.31 -1.45 0zm2.47 -2.15l0 1.6c0,0.05 0,0.16 0.04,0.2 0.04,0.03 0.16,0.04 0.21,0.04l0.19 0 0 0.31 -1.32 0 0 -0.31 0.19 0c0.05,0 0.18,-0.01 0.21,-0.04 0.04,-0.04 0.05,-0.15 0.05,-0.2l0 -1.57c0,-0.05 -0.01,-0.17 -0.05,-0.2 -0.03,-0.04 -0.16,-0.04 -0.21,-0.04l-0.18 0 0 -0.32 1.15 0 1.17 1.92 0 -1.36c0,-0.05 0,-0.17 -0.04,-0.2 -0.04,-0.04 -0.16,-0.04 -0.21,-0.04l-0.2 0 0 -0.32 1.28 0 0 0.32 -0.14 0c-0.05,0 -0.17,0 -0.21,0.04 -0.04,0.04 -0.05,0.15 -0.05,0.2l0 2.12 -0.57 0 -1.31 -2.15zm3.42 -0.21l0 0.8 0.14 0c0.1,0 0.26,-0.01 0.32,-0.08 0.08,-0.08 0.09,-0.3 0.1,-0.4l0 0 0.32 -0.01 0 1.36 -0.32 -0.01 0 0c-0.01,-0.11 -0.02,-0.35 -0.1,-0.44 -0.06,-0.09 -0.22,-0.1 -0.31,-0.1l-0.15 0 0 0.93 0.69 0c0.16,0 0.36,-0.03 0.47,-0.16 0.12,-0.15 0.15,-0.48 0.17,-0.66l0 -0.01 0.31 0 0 1.14 -2.63 0 0 -0.31 0.16 0c0.05,0 0.17,-0.01 0.21,-0.04 0.04,-0.04 0.04,-0.16 0.04,-0.21l0 -1.56c0,-0.05 0,-0.17 -0.04,-0.2 -0.04,-0.04 -0.16,-0.04 -0.21,-0.04l-0.16 0 0 -0.32 2.63 0 0 1.08 -0.31 0 0 -0.01c-0.01,-0.17 -0.03,-0.47 -0.15,-0.6 -0.12,-0.14 -0.38,-0.15 -0.55,-0.15l-0.63 0zm3.82 -0.13l0.14 -0.19 0.25 0 0 1.03 -0.32 0 0 -0.01c-0.04,-0.21 -0.12,-0.41 -0.28,-0.56 -0.15,-0.14 -0.34,-0.2 -0.55,-0.2 -0.12,0 -0.26,0.02 -0.36,0.09 -0.09,0.06 -0.13,0.14 -0.13,0.25 0,0.08 0.02,0.15 0.09,0.21 0.07,0.07 0.2,0.1 0.29,0.13l0.54 0.12c0.23,0.05 0.47,0.14 0.64,0.3 0.15,0.15 0.22,0.33 0.22,0.54 0,0.25 -0.09,0.46 -0.28,0.62 -0.21,0.18 -0.46,0.24 -0.73,0.24 -0.15,0 -0.3,-0.03 -0.44,-0.08 -0.16,-0.06 -0.31,-0.15 -0.44,-0.24l-0.09 0.24 -0.28 0 0 -1.11 0.32 0 0 0c0.04,0.23 0.12,0.45 0.3,0.61 0.16,0.15 0.37,0.2 0.59,0.2 0.13,0 0.29,-0.01 0.4,-0.08 0.09,-0.06 0.14,-0.15 0.14,-0.25 0,-0.1 -0.03,-0.18 -0.11,-0.25 -0.08,-0.07 -0.22,-0.12 -0.34,-0.14l-0.43 -0.1c-0.22,-0.06 -0.5,-0.14 -0.67,-0.3 -0.15,-0.13 -0.21,-0.31 -0.21,-0.5 0,-0.24 0.08,-0.45 0.26,-0.61 0.2,-0.17 0.45,-0.23 0.71,-0.23 0.14,0 0.28,0.02 0.41,0.07 0.13,0.05 0.25,0.12 0.36,0.2zm2.63 0l0.14 -0.19 0.25 0 0 1.03 -0.31 0 -0.01 -0.01c-0.04,-0.21 -0.12,-0.41 -0.28,-0.56 -0.15,-0.14 -0.34,-0.2 -0.54,-0.2 -0.13,0 -0.27,0.02 -0.37,0.09 -0.09,0.06 -0.13,0.14 -0.13,0.25 0,0.08 0.03,0.15 0.09,0.21 0.08,0.07 0.2,0.1 0.3,0.13l0.53 0.12c0.23,0.05 0.48,0.14 0.65,0.3 0.14,0.15 0.21,0.33 0.21,0.54 0,0.25 -0.09,0.46 -0.28,0.62 -0.21,0.18 -0.46,0.24 -0.73,0.24 -0.15,0 -0.3,-0.03 -0.44,-0.08 -0.16,-0.06 -0.3,-0.15 -0.44,-0.24l-0.08 0.24 -0.29 0 0 -1.11 0.32 0 0 0c0.04,0.23 0.12,0.45 0.3,0.61 0.16,0.15 0.37,0.2 0.59,0.2 0.13,0 0.29,-0.01 0.4,-0.08 0.1,-0.06 0.14,-0.15 0.14,-0.25 0,-0.1 -0.03,-0.18 -0.1,-0.25 -0.09,-0.07 -0.23,-0.12 -0.34,-0.14l-0.44 -0.1c-0.22,-0.06 -0.5,-0.14 -0.67,-0.3 -0.15,-0.13 -0.21,-0.31 -0.21,-0.5 0,-0.24 0.08,-0.45 0.27,-0.61 0.19,-0.17 0.45,-0.23 0.7,-0.23 0.14,0 0.28,0.02 0.41,0.07 0.13,0.05 0.25,0.12 0.36,0.2zm-19.85 2.18l0.43 0c0.15,0 0.36,-0.02 0.48,-0.11 0.12,-0.08 0.15,-0.22 0.15,-0.35 0,-0.13 -0.04,-0.27 -0.15,-0.35 -0.13,-0.09 -0.36,-0.11 -0.51,-0.11l-0.4 0 0 0.92zm0 -1.24l0.37 0c0.14,0 0.34,-0.01 0.46,-0.09 0.11,-0.07 0.14,-0.19 0.14,-0.31 0,-0.12 -0.03,-0.24 -0.12,-0.31 -0.11,-0.09 -0.3,-0.1 -0.43,-0.1l-0.42 0 0 0.81z"/>
   <path class="fil2" d="M10.5 3.55l0.38 0c0.22,0 0.37,-0.03 0.47,-0.1 0.09,-0.06 0.14,-0.16 0.14,-0.31 0,-0.15 -0.05,-0.26 -0.13,-0.32 -0.09,-0.06 -0.23,-0.1 -0.43,-0.1l-0.43 0 0 0.83zm0 1.24l0.44 0c0.23,0 0.39,-0.04 0.49,-0.11 0.1,-0.07 0.14,-0.19 0.14,-0.36 0,-0.17 -0.05,-0.29 -0.15,-0.36 -0.1,-0.07 -0.27,-0.1 -0.51,-0.1l-0.41 0 0 0.93zm-0.98 0.29l0 -0.3 0.16 0c0.12,0 0.19,-0.01 0.22,-0.04 0.03,-0.03 0.04,-0.1 0.04,-0.2l0 -1.57c0,-0.11 -0.01,-0.18 -0.04,-0.21 -0.03,-0.03 -0.1,-0.04 -0.22,-0.04l-0.16 0 0 -0.3 1.54 0c0.34,0 0.58,0.05 0.75,0.16 0.16,0.11 0.24,0.28 0.24,0.5 0,0.16 -0.05,0.28 -0.13,0.38 -0.09,0.09 -0.23,0.16 -0.41,0.21 0.22,0.05 0.38,0.12 0.48,0.24 0.11,0.11 0.16,0.26 0.16,0.45 0,0.26 -0.08,0.45 -0.26,0.56 -0.18,0.11 -0.48,0.16 -0.9,0.16l-1.47 0z"/>
   <path id="1" class="fil2" d="M12.81 2.97c0,-0.11 -0.02,-0.18 -0.05,-0.21 -0.02,-0.03 -0.1,-0.04 -0.22,-0.04l-0.12 0 0 -0.3 1.38 0 0 0.3 -0.17 0c-0.12,0 -0.19,0.01 -0.22,0.04 -0.03,0.03 -0.04,0.1 -0.04,0.21l0 1.27c0,0.19 0.04,0.32 0.13,0.41 0.09,0.08 0.23,0.12 0.42,0.12 0.19,0 0.33,-0.04 0.42,-0.13 0.1,-0.09 0.14,-0.22 0.14,-0.4l0 -1.27c0,-0.11 -0.01,-0.18 -0.04,-0.21 -0.03,-0.03 -0.1,-0.04 -0.22,-0.04l-0.15 0 0 -0.3 1.22 0 0 0.3 -0.13 0c-0.12,0 -0.19,0.01 -0.22,0.04 -0.03,0.03 -0.04,0.1 -0.04,0.21l0 1.27c0,0.3 -0.09,0.53 -0.27,0.69 -0.18,0.16 -0.44,0.23 -0.78,0.23 -0.34,0 -0.6,-0.07 -0.78,-0.23 -0.18,-0.16 -0.26,-0.39 -0.26,-0.69l0 -1.27z"/>
   <path id="2" class="fil2" d="M15.54 5.08l0 -1.1 0.31 0c0.05,0.27 0.15,0.47 0.3,0.61 0.15,0.14 0.35,0.21 0.6,0.21 0.18,0 0.31,-0.03 0.41,-0.09 0.09,-0.06 0.14,-0.14 0.14,-0.25 0,-0.11 -0.04,-0.19 -0.11,-0.25 -0.07,-0.06 -0.19,-0.11 -0.35,-0.15l-0.43 -0.1c-0.31,-0.07 -0.53,-0.17 -0.67,-0.3 -0.14,-0.12 -0.2,-0.28 -0.2,-0.49 0,-0.25 0.08,-0.45 0.26,-0.6 0.17,-0.16 0.41,-0.23 0.7,-0.23 0.14,0 0.28,0.02 0.41,0.07 0.12,0.04 0.24,0.11 0.36,0.2l0.14 -0.19 0.24 0 0 1.01 -0.3 0c-0.05,-0.24 -0.14,-0.43 -0.29,-0.57 -0.14,-0.13 -0.33,-0.2 -0.55,-0.2 -0.16,0 -0.28,0.03 -0.37,0.1 -0.09,0.06 -0.13,0.14 -0.13,0.25 0,0.09 0.03,0.16 0.09,0.21 0.06,0.06 0.16,0.1 0.3,0.13l0.54 0.13c0.28,0.06 0.5,0.16 0.64,0.3 0.14,0.14 0.21,0.31 0.21,0.53 0,0.25 -0.09,0.45 -0.28,0.61 -0.18,0.16 -0.42,0.24 -0.72,0.24 -0.15,0 -0.29,-0.02 -0.44,-0.08 -0.15,-0.05 -0.3,-0.14 -0.45,-0.25l-0.08 0.25 -0.28 0z"/>
   <path id="3" class="fil2" d="M18.03 5.08l0 -0.3 0.17 0c0.12,0 0.19,-0.01 0.22,-0.04 0.03,-0.03 0.04,-0.1 0.04,-0.2l0 -1.57c0,-0.11 -0.01,-0.18 -0.04,-0.21 -0.03,-0.03 -0.1,-0.04 -0.22,-0.04l-0.17 0 0 -0.3 1.44 0 0 0.3 -0.17 0c-0.12,0 -0.2,0.01 -0.23,0.04 -0.02,0.03 -0.04,0.1 -0.04,0.21l0 1.57c0,0.1 0.02,0.17 0.04,0.2 0.03,0.03 0.11,0.04 0.23,0.04l0.17 0 0 0.3 -1.44 0z"/>
   <path id="4" class="fil2" d="M22.37 5.08l-0.57 0 -1.32 -2.17 0 1.63c0,0.1 0.01,0.17 0.04,0.2 0.03,0.03 0.1,0.04 0.22,0.04l0.18 0 0 0.3 -1.31 0 0 -0.3 0.19 0c0.12,0 0.19,-0.01 0.22,-0.04 0.03,-0.03 0.04,-0.1 0.04,-0.2l0 -1.57c0,-0.11 -0.01,-0.18 -0.04,-0.21 -0.03,-0.03 -0.1,-0.04 -0.22,-0.04l-0.17 0 0 -0.3 1.14 0 1.18 1.93 0 -1.38c0,-0.11 -0.02,-0.18 -0.04,-0.21 -0.03,-0.03 -0.1,-0.04 -0.22,-0.04l-0.19 0 0 -0.3 1.26 0 0 0.3 -0.13 0c-0.12,0 -0.19,0.01 -0.22,0.04 -0.03,0.03 -0.04,0.1 -0.04,0.21l0 2.11z"/>
   <path id="5" class="fil2" d="M22.92 5.08l0 -0.3 0.16 0c0.11,0 0.19,-0.01 0.22,-0.04 0.02,-0.03 0.04,-0.1 0.04,-0.21l0 -1.56c0,-0.11 -0.02,-0.18 -0.04,-0.21 -0.03,-0.03 -0.11,-0.04 -0.22,-0.04l-0.16 0 0 -0.3 2.62 0 0 1.06 -0.3 0c-0.01,-0.3 -0.06,-0.51 -0.15,-0.61 -0.09,-0.1 -0.27,-0.15 -0.55,-0.15l-0.64 0 0 0.82 0.15 0c0.17,0 0.28,-0.03 0.33,-0.09 0.05,-0.06 0.08,-0.19 0.09,-0.4l0.31 0 0 1.34 -0.31 0c-0.01,-0.23 -0.04,-0.38 -0.09,-0.45 -0.05,-0.06 -0.16,-0.1 -0.33,-0.1l-0.15 0 0 0.94 0.7 0c0.23,0 0.39,-0.05 0.48,-0.16 0.08,-0.11 0.14,-0.33 0.16,-0.66l0.3 0 0 1.12 -2.62 0z"/>
   <path id="6" class="fil2" d="M26 5.08l0 -1.1 0.31 0c0.05,0.27 0.14,0.47 0.3,0.61 0.15,0.14 0.35,0.21 0.6,0.21 0.18,0 0.31,-0.03 0.4,-0.09 0.1,-0.06 0.15,-0.14 0.15,-0.25 0,-0.11 -0.04,-0.19 -0.11,-0.25 -0.07,-0.06 -0.19,-0.11 -0.35,-0.15l-0.43 -0.1c-0.31,-0.07 -0.53,-0.17 -0.67,-0.3 -0.14,-0.12 -0.2,-0.28 -0.2,-0.49 0,-0.25 0.08,-0.45 0.26,-0.6 0.17,-0.16 0.41,-0.23 0.7,-0.23 0.14,0 0.28,0.02 0.41,0.07 0.12,0.04 0.24,0.11 0.36,0.2l0.14 -0.19 0.24 0 0 1.01 -0.3 0c-0.05,-0.24 -0.14,-0.43 -0.29,-0.57 -0.14,-0.13 -0.33,-0.2 -0.55,-0.2 -0.16,0 -0.28,0.03 -0.37,0.1 -0.09,0.06 -0.13,0.14 -0.13,0.25 0,0.09 0.03,0.16 0.09,0.21 0.06,0.06 0.16,0.1 0.3,0.13l0.54 0.13c0.28,0.06 0.5,0.16 0.64,0.3 0.14,0.14 0.21,0.31 0.21,0.53 0,0.25 -0.09,0.45 -0.28,0.61 -0.18,0.16 -0.42,0.24 -0.72,0.24 -0.15,0 -0.3,-0.02 -0.44,-0.08 -0.15,-0.05 -0.3,-0.14 -0.45,-0.25l-0.08 0.25 -0.28 0z"/>
   <path id="7" class="fil2" d="M28.64 5.08l0 -1.1 0.31 0c0.04,0.27 0.14,0.47 0.29,0.61 0.15,0.14 0.35,0.21 0.6,0.21 0.18,0 0.31,-0.03 0.41,-0.09 0.09,-0.06 0.14,-0.14 0.14,-0.25 0,-0.11 -0.04,-0.19 -0.11,-0.25 -0.07,-0.06 -0.19,-0.11 -0.34,-0.15l-0.44 -0.1c-0.31,-0.07 -0.53,-0.17 -0.67,-0.3 -0.13,-0.12 -0.2,-0.28 -0.2,-0.49 0,-0.25 0.09,-0.45 0.26,-0.6 0.17,-0.16 0.41,-0.23 0.7,-0.23 0.14,0 0.28,0.02 0.41,0.07 0.12,0.04 0.25,0.11 0.36,0.2l0.14 -0.19 0.24 0 0 1.01 -0.3 0c-0.05,-0.24 -0.14,-0.43 -0.29,-0.57 -0.14,-0.13 -0.32,-0.2 -0.54,-0.2 -0.16,0 -0.29,0.03 -0.38,0.1 -0.09,0.06 -0.13,0.14 -0.13,0.25 0,0.09 0.03,0.16 0.09,0.21 0.07,0.06 0.17,0.1 0.3,0.13l0.54 0.13c0.28,0.06 0.5,0.16 0.64,0.3 0.14,0.14 0.21,0.31 0.21,0.53 0,0.25 -0.09,0.45 -0.28,0.61 -0.18,0.16 -0.42,0.24 -0.72,0.24 -0.15,0 -0.29,-0.02 -0.44,-0.08 -0.15,-0.05 -0.29,-0.14 -0.44,-0.25l-0.09 0.25 -0.27 0z"/>
   <path class="fil2" d="M10.08 6.17c0,-0.06 -0.02,-0.1 -0.06,-0.12 -0.03,-0.03 -0.08,-0.04 -0.14,-0.04 -0.06,0 -0.11,0.01 -0.14,0.03 -0.04,0.02 -0.05,0.05 -0.05,0.09 0,0.04 0.01,0.06 0.04,0.08 0.02,0.02 0.08,0.04 0.16,0.06 0.06,0.01 0.12,0.03 0.16,0.04 0.05,0.02 0.09,0.04 0.12,0.08 0.03,0.03 0.04,0.08 0.04,0.13 0,0.07 -0.02,0.13 -0.08,0.18 -0.06,0.05 -0.13,0.07 -0.23,0.07 -0.11,0 -0.2,-0.02 -0.26,-0.08 -0.06,-0.05 -0.09,-0.12 -0.09,-0.2l0.1 -0.01c0.01,0.07 0.03,0.12 0.08,0.15 0.05,0.03 0.1,0.04 0.17,0.04 0.06,0 0.11,-0.01 0.15,-0.03 0.04,-0.03 0.06,-0.06 0.06,-0.11 0,-0.04 -0.02,-0.08 -0.06,-0.1 -0.04,-0.02 -0.11,-0.04 -0.2,-0.06 -0.1,-0.02 -0.17,-0.05 -0.21,-0.09 -0.04,-0.03 -0.06,-0.08 -0.06,-0.14 0,-0.07 0.03,-0.12 0.08,-0.17 0.05,-0.04 0.12,-0.06 0.21,-0.06 0.1,0 0.17,0.02 0.23,0.06 0.05,0.05 0.08,0.11 0.09,0.19l-0.11 0.01z"/>
   <path id="1" class="fil2" d="M10.6 6.14c0.08,0 0.15,0.03 0.2,0.08 0.06,0.05 0.08,0.13 0.08,0.23 0,0.12 -0.02,0.2 -0.08,0.25 -0.06,0.05 -0.13,0.07 -0.2,0.07 -0.08,0 -0.14,-0.02 -0.2,-0.07 -0.06,-0.05 -0.08,-0.13 -0.08,-0.24 0,-0.11 0.02,-0.19 0.08,-0.24 0.05,-0.05 0.12,-0.08 0.2,-0.08zm0 0.55c0.06,0 0.1,-0.02 0.13,-0.07 0.03,-0.04 0.05,-0.1 0.05,-0.17 0,-0.07 -0.02,-0.13 -0.05,-0.17 -0.04,-0.04 -0.08,-0.06 -0.13,-0.06 -0.05,0 -0.09,0.02 -0.13,0.06 -0.03,0.04 -0.05,0.1 -0.05,0.18 0,0.07 0.02,0.13 0.05,0.17 0.04,0.04 0.08,0.06 0.13,0.06z"/>
   <path id="2" class="fil2" d="M11.11 6.76l-0.11 0 0 -0.84 0.11 0 0 0.84z"/>
   <path id="3" class="fil2" d="M11.76 6.76l-0.1 0 0 -0.09 0 0c-0.05,0.07 -0.11,0.1 -0.19,0.1 -0.04,0 -0.08,-0.01 -0.12,-0.03 -0.03,-0.02 -0.06,-0.04 -0.07,-0.08 -0.01,-0.03 -0.02,-0.08 -0.02,-0.13l0 -0.38 0.11 0 0 0.34c0,0.05 0,0.09 0,0.11 0.01,0.03 0.02,0.05 0.04,0.06 0.03,0.02 0.05,0.02 0.08,0.02 0.04,0 0.08,-0.01 0.11,-0.04 0.04,-0.02 0.05,-0.08 0.05,-0.16l0 -0.33 0.11 0 0 0.61z"/>
   <path id="4" class="fil2" d="M12.16 6.88c0,-0.02 -0.02,-0.04 -0.08,-0.04l0.02 -0.07c-0.07,-0.01 -0.12,-0.05 -0.16,-0.1 -0.04,-0.06 -0.06,-0.13 -0.06,-0.21 0,-0.11 0.03,-0.19 0.08,-0.24 0.05,-0.05 0.12,-0.08 0.2,-0.08 0.06,0 0.11,0.01 0.16,0.04 0.04,0.03 0.07,0.08 0.08,0.15l-0.1 0.02c-0.01,-0.04 -0.02,-0.08 -0.05,-0.1 -0.02,-0.02 -0.05,-0.03 -0.09,-0.03 -0.05,0 -0.1,0.02 -0.13,0.06 -0.03,0.05 -0.04,0.1 -0.04,0.18 0,0.07 0.01,0.13 0.04,0.17 0.03,0.04 0.07,0.06 0.13,0.06 0.04,0 0.08,-0.01 0.1,-0.04 0.03,-0.02 0.04,-0.06 0.05,-0.11l0.1 0.01c-0.01,0.07 -0.04,0.12 -0.08,0.16 -0.04,0.04 -0.09,0.06 -0.16,0.06l-0.01 0.03c0.04,0 0.06,0.01 0.08,0.03 0.01,0.02 0.02,0.04 0.02,0.06 0,0.03 -0.02,0.06 -0.05,0.07 -0.03,0.02 -0.07,0.03 -0.12,0.03 -0.01,0 -0.03,0 -0.06,-0.01l0 -0.06c0.02,0 0.04,0 0.06,0 0.05,0 0.07,-0.01 0.07,-0.04z"/>
   <path id="5" class="fil2" d="M12.75 6.14c0.08,0 0.15,0.03 0.2,0.08 0.06,0.05 0.08,0.13 0.08,0.23 0,0.12 -0.03,0.2 -0.09,0.25 -0.05,0.05 -0.12,0.07 -0.19,0.07 -0.08,0 -0.15,-0.02 -0.2,-0.07 -0.06,-0.05 -0.09,-0.13 -0.09,-0.24 0,-0.11 0.03,-0.19 0.09,-0.24 0.05,-0.05 0.12,-0.08 0.2,-0.08zm0 0.55c0.06,0 0.1,-0.02 0.13,-0.07 0.03,-0.04 0.05,-0.1 0.05,-0.17 0,-0.07 -0.02,-0.13 -0.05,-0.17 -0.04,-0.04 -0.08,-0.06 -0.13,-0.06 -0.05,0 -0.1,0.02 -0.13,0.06 -0.03,0.04 -0.05,0.1 -0.05,0.18 0,0.07 0.02,0.13 0.05,0.17 0.03,0.04 0.08,0.06 0.13,0.06zm0.19 -0.77c0,0.04 -0.01,0.08 -0.03,0.1 -0.03,0.02 -0.05,0.03 -0.08,0.03 -0.02,0 -0.04,0 -0.05,-0.01 -0.01,0 -0.02,-0.01 -0.04,-0.02 -0.03,-0.01 -0.05,-0.02 -0.06,-0.02 -0.04,0 -0.05,0.02 -0.05,0.05l-0.07 0c0,-0.04 0.01,-0.07 0.03,-0.1 0.02,-0.02 0.05,-0.03 0.08,-0.03 0.03,0 0.05,0.01 0.08,0.03 0.03,0.02 0.05,0.02 0.07,0.02 0.03,0 0.04,-0.01 0.05,-0.05l0.07 0z"/>
   <path id="6" class="fil2" d="M13.68 6.48l-0.46 0c0.01,0.07 0.03,0.12 0.06,0.16 0.04,0.03 0.08,0.05 0.13,0.05 0.04,0 0.07,-0.01 0.1,-0.03 0.02,-0.02 0.05,-0.05 0.06,-0.1l0.11 0.02c-0.02,0.06 -0.05,0.11 -0.1,0.14 -0.04,0.04 -0.1,0.05 -0.17,0.05 -0.09,0 -0.16,-0.02 -0.21,-0.08 -0.06,-0.06 -0.08,-0.13 -0.08,-0.23 0,-0.09 0.02,-0.17 0.07,-0.23 0.05,-0.06 0.12,-0.09 0.21,-0.09 0.05,0 0.09,0.01 0.13,0.03 0.04,0.02 0.08,0.05 0.11,0.1 0.02,0.04 0.04,0.12 0.04,0.21zm-0.11 -0.08c0,-0.06 -0.02,-0.11 -0.05,-0.14 -0.04,-0.02 -0.08,-0.04 -0.12,-0.04 -0.04,0 -0.08,0.02 -0.12,0.05 -0.03,0.03 -0.05,0.08 -0.05,0.13l0.34 0z"/>
   <path id="7" class="fil2" d="M14.14 6.32c0,-0.03 -0.02,-0.06 -0.04,-0.07 -0.02,-0.02 -0.05,-0.03 -0.09,-0.03 -0.04,0 -0.07,0.01 -0.1,0.02 -0.02,0.02 -0.03,0.04 -0.03,0.06 0,0.03 0.01,0.04 0.03,0.05 0.01,0.01 0.05,0.03 0.11,0.04 0.06,0.02 0.11,0.03 0.14,0.04 0.03,0.02 0.06,0.03 0.08,0.06 0.01,0.02 0.02,0.05 0.02,0.09 0,0.06 -0.02,0.1 -0.06,0.14 -0.05,0.03 -0.11,0.05 -0.18,0.05 -0.08,0 -0.14,-0.01 -0.18,-0.05 -0.04,-0.03 -0.07,-0.08 -0.08,-0.14l0.1 -0.02c0.01,0.04 0.02,0.08 0.05,0.1 0.03,0.02 0.06,0.03 0.11,0.03 0.04,0 0.08,-0.01 0.1,-0.03 0.03,-0.02 0.04,-0.04 0.04,-0.07 0,-0.02 -0.01,-0.03 -0.02,-0.04 -0.01,-0.01 -0.02,-0.02 -0.04,-0.03 -0.02,0 -0.05,-0.01 -0.11,-0.03 -0.09,-0.02 -0.14,-0.04 -0.17,-0.07 -0.03,-0.03 -0.04,-0.07 -0.04,-0.11 0,-0.05 0.02,-0.09 0.06,-0.12 0.04,-0.03 0.09,-0.05 0.16,-0.05 0.07,0 0.13,0.01 0.17,0.04 0.04,0.03 0.06,0.07 0.07,0.13l-0.1 0.01z"/>
   <path id="8" class="fil2" d="M15.24 6.48l-0.45 0c0,0.07 0.02,0.12 0.05,0.16 0.04,0.03 0.08,0.05 0.13,0.05 0.04,0 0.07,-0.01 0.1,-0.03 0.03,-0.02 0.05,-0.05 0.06,-0.1l0.11 0.02c-0.02,0.06 -0.05,0.11 -0.1,0.14 -0.04,0.04 -0.1,0.05 -0.17,0.05 -0.09,0 -0.16,-0.02 -0.21,-0.08 -0.05,-0.06 -0.08,-0.13 -0.08,-0.23 0,-0.09 0.03,-0.17 0.08,-0.23 0.04,-0.06 0.11,-0.09 0.21,-0.09 0.04,0 0.08,0.01 0.12,0.03 0.04,0.02 0.08,0.05 0.11,0.1 0.03,0.04 0.04,0.12 0.04,0.21zm-0.11 -0.08c0,-0.06 -0.02,-0.11 -0.05,-0.14 -0.04,-0.02 -0.07,-0.04 -0.11,-0.04 -0.05,0 -0.09,0.02 -0.12,0.05 -0.04,0.03 -0.05,0.08 -0.06,0.13l0.34 0z"/>
   <path id="9" class="fil2" d="M16.19 6.76l-0.11 0 0 -0.38c0,-0.03 0,-0.06 0,-0.08 -0.01,-0.02 -0.02,-0.03 -0.03,-0.05 -0.02,-0.01 -0.04,-0.02 -0.08,-0.02 -0.04,0 -0.07,0.01 -0.1,0.04 -0.03,0.03 -0.04,0.07 -0.04,0.14l0 0.35 -0.11 0 0 -0.4c0,-0.05 -0.01,-0.08 -0.03,-0.1 -0.01,-0.02 -0.04,-0.03 -0.07,-0.03 -0.05,0 -0.08,0.01 -0.11,0.04 -0.03,0.03 -0.05,0.09 -0.05,0.17l0 0.32 -0.1 0 0 -0.61 0.09 0 0 0.09 0.01 0c0.04,-0.07 0.1,-0.1 0.18,-0.1 0.04,0 0.08,0.01 0.11,0.03 0.03,0.01 0.05,0.04 0.06,0.08 0.05,-0.08 0.11,-0.11 0.19,-0.11 0.06,0 0.11,0.02 0.14,0.05 0.03,0.03 0.05,0.08 0.05,0.15l0 0.42z"/>
   <path id="10" class="fil2" d="M17.39 6.49c-0.03,0.1 -0.07,0.17 -0.13,0.21 -0.06,0.05 -0.14,0.07 -0.22,0.07 -0.14,0 -0.24,-0.04 -0.3,-0.13 -0.06,-0.08 -0.09,-0.18 -0.09,-0.31 0,-0.13 0.03,-0.23 0.11,-0.31 0.07,-0.08 0.16,-0.11 0.28,-0.11 0.08,0 0.15,0.02 0.21,0.06 0.06,0.04 0.1,0.1 0.12,0.18l-0.11 0.03c-0.02,-0.06 -0.04,-0.1 -0.08,-0.13 -0.04,-0.03 -0.08,-0.05 -0.14,-0.05 -0.09,0 -0.16,0.03 -0.21,0.09 -0.05,0.06 -0.07,0.14 -0.07,0.24 0,0.12 0.03,0.21 0.08,0.26 0.04,0.06 0.11,0.09 0.19,0.09 0.06,0 0.12,-0.02 0.16,-0.05 0.04,-0.04 0.07,-0.09 0.09,-0.16l0.11 0.02z"/>
   <path id="11" class="fil2" d="M17.76 6.14c0.08,0 0.15,0.03 0.2,0.08 0.05,0.05 0.08,0.13 0.08,0.23 0,0.12 -0.03,0.2 -0.09,0.25 -0.05,0.05 -0.12,0.07 -0.19,0.07 -0.08,0 -0.15,-0.02 -0.2,-0.07 -0.06,-0.05 -0.09,-0.13 -0.09,-0.24 0,-0.11 0.03,-0.19 0.08,-0.24 0.06,-0.05 0.13,-0.08 0.21,-0.08zm0 0.55c0.06,0 0.1,-0.02 0.13,-0.07 0.03,-0.04 0.05,-0.1 0.05,-0.17 0,-0.07 -0.02,-0.13 -0.06,-0.17 -0.03,-0.04 -0.07,-0.06 -0.12,-0.06 -0.06,0 -0.1,0.02 -0.13,0.06 -0.04,0.04 -0.05,0.1 -0.05,0.18 0,0.07 0.01,0.13 0.05,0.17 0.03,0.04 0.08,0.06 0.13,0.06z"/>
   <path id="12" class="fil2" d="M18.66 6.76l-0.11 0 0 -0.37c0,-0.06 -0.01,-0.1 -0.03,-0.13 -0.02,-0.02 -0.05,-0.03 -0.09,-0.03 -0.03,0 -0.06,0 -0.09,0.02 -0.03,0.01 -0.05,0.04 -0.06,0.06 -0.01,0.03 -0.02,0.07 -0.02,0.12l0 0.33 -0.1 0 0 -0.61 0.09 0 0 0.09 0.01 0c0.02,-0.03 0.04,-0.06 0.08,-0.08 0.03,-0.01 0.07,-0.02 0.11,-0.02 0.03,0 0.06,0 0.09,0.02 0.03,0.01 0.06,0.02 0.08,0.05 0.01,0.02 0.02,0.04 0.03,0.07 0,0.03 0.01,0.06 0.01,0.11l0 0.37z"/>
   <path id="13" class="fil2" d="M19.15 6.32c0,-0.03 -0.02,-0.06 -0.04,-0.07 -0.02,-0.02 -0.05,-0.03 -0.09,-0.03 -0.04,0 -0.07,0.01 -0.1,0.02 -0.02,0.02 -0.03,0.04 -0.03,0.06 0,0.03 0,0.04 0.02,0.05 0.02,0.01 0.06,0.03 0.12,0.04 0.06,0.02 0.11,0.03 0.14,0.04 0.03,0.02 0.06,0.03 0.08,0.06 0.01,0.02 0.02,0.05 0.02,0.09 0,0.06 -0.02,0.1 -0.06,0.14 -0.05,0.03 -0.11,0.05 -0.18,0.05 -0.08,0 -0.14,-0.01 -0.18,-0.05 -0.04,-0.03 -0.07,-0.08 -0.08,-0.14l0.1 -0.02c0.01,0.04 0.02,0.08 0.05,0.1 0.02,0.02 0.06,0.03 0.11,0.03 0.04,0 0.08,-0.01 0.1,-0.03 0.03,-0.02 0.04,-0.04 0.04,-0.07 0,-0.02 -0.01,-0.03 -0.02,-0.04 -0.01,-0.01 -0.02,-0.02 -0.04,-0.03 -0.02,0 -0.05,-0.01 -0.11,-0.03 -0.09,-0.02 -0.15,-0.04 -0.17,-0.07 -0.03,-0.03 -0.04,-0.07 -0.04,-0.11 0,-0.05 0.02,-0.09 0.06,-0.12 0.04,-0.03 0.09,-0.05 0.16,-0.05 0.07,0 0.13,0.01 0.17,0.04 0.04,0.03 0.06,0.07 0.07,0.13l-0.1 0.01z"/>
   <path id="14" class="fil2" d="M19.89 6.76l-0.09 0 0 -0.09 -0.01 0c-0.04,0.07 -0.11,0.1 -0.19,0.1 -0.04,0 -0.08,-0.01 -0.11,-0.03 -0.04,-0.02 -0.06,-0.04 -0.08,-0.08 -0.01,-0.03 -0.01,-0.08 -0.01,-0.13l0 -0.38 0.1 0 0 0.34c0,0.05 0,0.09 0.01,0.11 0,0.03 0.01,0.05 0.04,0.06 0.02,0.02 0.04,0.02 0.07,0.02 0.04,0 0.08,-0.01 0.11,-0.04 0.04,-0.02 0.06,-0.08 0.06,-0.16l0 -0.33 0.1 0 0 0.61z"/>
   <path id="15" class="fil2" d="M20.15 6.76l-0.1 0 0 -0.84 0.1 0 0 0.84z"/>
   <path id="16" class="fil2" d="M20.54 6.76c-0.03,0 -0.05,0.01 -0.07,0.01 -0.05,0 -0.08,-0.01 -0.1,-0.03 -0.02,-0.01 -0.03,-0.03 -0.04,-0.06 0,-0.02 -0.01,-0.06 -0.01,-0.1l0 -0.35 -0.07 0 0 -0.08 0.07 0 0 -0.15 0.11 -0.06 0 0.21 0.1 0 0 0.08 -0.1 0 0 0.36c0,0.03 0,0.05 0.01,0.06 0,0.01 0.02,0.02 0.04,0.02 0.02,0 0.03,0 0.05,0l0.01 0.09z"/>
   <path id="17" class="fil2" d="M20.88 6.14c0.08,0 0.15,0.03 0.2,0.08 0.06,0.05 0.08,0.13 0.08,0.23 0,0.12 -0.02,0.2 -0.08,0.25 -0.06,0.05 -0.13,0.07 -0.2,0.07 -0.08,0 -0.14,-0.02 -0.2,-0.07 -0.06,-0.05 -0.08,-0.13 -0.08,-0.24 0,-0.11 0.02,-0.19 0.08,-0.24 0.05,-0.05 0.12,-0.08 0.2,-0.08zm0 0.55c0.06,0 0.1,-0.02 0.13,-0.07 0.03,-0.04 0.05,-0.1 0.05,-0.17 0,-0.07 -0.02,-0.13 -0.05,-0.17 -0.04,-0.04 -0.08,-0.06 -0.13,-0.06 -0.05,0 -0.09,0.02 -0.13,0.06 -0.03,0.04 -0.05,0.1 -0.05,0.18 0,0.07 0.02,0.13 0.05,0.17 0.04,0.04 0.08,0.06 0.13,0.06z"/>
   <path id="18" class="fil2" d="M21.61 6.17l-0.03 0.1c-0.03,-0.02 -0.06,-0.03 -0.08,-0.03 -0.04,0 -0.07,0.02 -0.09,0.06 -0.02,0.03 -0.03,0.08 -0.03,0.14l0 0.32 -0.1 0 0 -0.61 0.09 0 0 0.09 0.01 0c0.03,-0.07 0.07,-0.1 0.13,-0.1 0.03,0 0.07,0.01 0.1,0.03z"/>
   <path id="19" class="fil2" d="M21.78 6.76l-0.11 0 0 -0.61 0.11 0 0 0.61zm0 -0.72l-0.11 0 0 -0.12 0.11 0 0 0.12z"/>
   <path id="20" class="fil2" d="M22.46 6.76l-0.11 0c-0.01,-0.02 -0.02,-0.04 -0.02,-0.08 -0.07,0.06 -0.14,0.09 -0.22,0.09 -0.07,0 -0.12,-0.01 -0.15,-0.04 -0.04,-0.04 -0.06,-0.08 -0.06,-0.13 0,-0.05 0.02,-0.09 0.05,-0.13 0.04,-0.03 0.1,-0.05 0.19,-0.06l0.1 -0.01c0.03,-0.01 0.06,-0.02 0.08,-0.03 0,-0.03 0,-0.05 0,-0.06 0,-0.01 -0.01,-0.03 -0.02,-0.04 -0.01,-0.01 -0.02,-0.03 -0.04,-0.03 -0.02,-0.01 -0.05,-0.02 -0.08,-0.02 -0.05,0 -0.08,0.01 -0.11,0.03 -0.02,0.01 -0.04,0.04 -0.05,0.09l-0.1 -0.01c0.01,-0.07 0.04,-0.11 0.08,-0.14 0.05,-0.04 0.11,-0.05 0.19,-0.05 0.07,0 0.13,0.01 0.16,0.03 0.04,0.02 0.06,0.05 0.06,0.08 0.01,0.03 0.02,0.07 0.02,0.12l0 0.14c0,0.08 0,0.14 0,0.16 0,0.03 0.01,0.06 0.03,0.09zm-0.14 -0.27l0 -0.04c-0.05,0.02 -0.12,0.04 -0.19,0.05 -0.08,0.01 -0.12,0.04 -0.12,0.1 0,0.02 0.01,0.05 0.03,0.07 0.02,0.01 0.05,0.02 0.09,0.02 0.05,0 0.1,-0.01 0.14,-0.04 0.03,-0.03 0.05,-0.08 0.05,-0.16z"/>
   <path id="21" class="fil2" d="M23.44 6.48l-0.46 0c0.01,0.07 0.03,0.12 0.06,0.16 0.03,0.03 0.08,0.05 0.13,0.05 0.04,0 0.07,-0.01 0.1,-0.03 0.02,-0.02 0.04,-0.05 0.06,-0.1l0.1 0.02c-0.01,0.06 -0.05,0.11 -0.09,0.14 -0.05,0.04 -0.1,0.05 -0.17,0.05 -0.09,0 -0.16,-0.02 -0.22,-0.08 -0.05,-0.06 -0.07,-0.13 -0.07,-0.23 0,-0.09 0.02,-0.17 0.07,-0.23 0.05,-0.06 0.12,-0.09 0.21,-0.09 0.05,0 0.09,0.01 0.13,0.03 0.04,0.02 0.08,0.05 0.1,0.1 0.03,0.04 0.05,0.12 0.05,0.21zm-0.11 -0.08c0,-0.06 -0.02,-0.11 -0.06,-0.14 -0.03,-0.02 -0.07,-0.04 -0.11,-0.04 -0.05,0 -0.09,0.02 -0.12,0.05 -0.03,0.03 -0.05,0.08 -0.05,0.13l0.34 0z"/>
   <path id="22" class="fil2" d="M24.48 6.02l-0.28 0 0 0.74 -0.11 0 0 -0.74 -0.28 0 0 -0.1 0.67 0 0 0.1z"/>
   <path id="23" class="fil2" d="M24.86 6.17l-0.03 0.1c-0.03,-0.02 -0.05,-0.03 -0.08,-0.03 -0.04,0 -0.06,0.02 -0.08,0.06 -0.02,0.03 -0.03,0.08 -0.03,0.14l0 0.32 -0.11 0 0 -0.61 0.1 0 0 0.09 0 0c0.03,-0.07 0.07,-0.1 0.13,-0.1 0.03,0 0.07,0.01 0.1,0.03z"/>
   <path id="24" class="fil2" d="M25.45 6.48l-0.45 0c0,0.07 0.02,0.12 0.06,0.16 0.03,0.03 0.07,0.05 0.12,0.05 0.04,0 0.08,-0.01 0.1,-0.03 0.03,-0.02 0.05,-0.05 0.06,-0.1l0.11 0.02c-0.02,0.06 -0.05,0.11 -0.09,0.14 -0.05,0.04 -0.11,0.05 -0.18,0.05 -0.09,0 -0.16,-0.02 -0.21,-0.08 -0.05,-0.06 -0.08,-0.13 -0.08,-0.23 0,-0.09 0.03,-0.17 0.08,-0.23 0.05,-0.06 0.12,-0.09 0.21,-0.09 0.04,0 0.09,0.01 0.13,0.03 0.04,0.02 0.07,0.05 0.1,0.1 0.03,0.04 0.04,0.12 0.04,0.21zm-0.1 -0.08c-0.01,-0.06 -0.03,-0.11 -0.06,-0.14 -0.03,-0.02 -0.07,-0.04 -0.11,-0.04 -0.05,0 -0.09,0.02 -0.12,0.05 -0.03,0.03 -0.05,0.08 -0.06,0.13l0.35 0z"/>
   <path id="25" class="fil2" d="M25.68 6.76l-0.1 0 0 -0.61 0.1 0 0 0.61zm0 -0.72l-0.1 0 0 -0.12 0.1 0 0 0.12z"/>
   <path id="26" class="fil2" d="M26.33 6.76l-0.1 0 0 -0.37c0,-0.06 -0.01,-0.1 -0.03,-0.13 -0.03,-0.02 -0.06,-0.03 -0.1,-0.03 -0.03,0 -0.06,0 -0.08,0.02 -0.03,0.01 -0.05,0.04 -0.06,0.06 -0.01,0.03 -0.02,0.07 -0.02,0.12l0 0.33 -0.1 0 0 -0.61 0.09 0 0 0.09 0 0c0.03,-0.03 0.05,-0.06 0.08,-0.08 0.04,-0.01 0.07,-0.02 0.11,-0.02 0.04,0 0.07,0 0.1,0.02 0.03,0.01 0.05,0.02 0.07,0.05 0.02,0.02 0.03,0.04 0.04,0.07 0,0.03 0,0.06 0,0.11l0 0.37z"/>
   <path id="27" class="fil2" d="M27.01 6.76l-0.1 0c-0.01,-0.02 -0.02,-0.04 -0.03,-0.08 -0.06,0.06 -0.14,0.09 -0.22,0.09 -0.06,0 -0.11,-0.01 -0.15,-0.04 -0.04,-0.04 -0.06,-0.08 -0.06,-0.13 0,-0.05 0.02,-0.09 0.06,-0.13 0.03,-0.03 0.1,-0.05 0.18,-0.06l0.1 -0.01c0.04,-0.01 0.06,-0.02 0.09,-0.03 0,-0.03 0,-0.05 0,-0.06 -0.01,-0.01 -0.01,-0.03 -0.02,-0.04 -0.01,-0.01 -0.03,-0.03 -0.05,-0.03 -0.02,-0.01 -0.04,-0.02 -0.08,-0.02 -0.04,0 -0.08,0.01 -0.1,0.03 -0.03,0.01 -0.05,0.04 -0.06,0.09l-0.1 -0.01c0.01,-0.07 0.04,-0.11 0.09,-0.14 0.04,-0.04 0.11,-0.05 0.19,-0.05 0.07,0 0.12,0.01 0.16,0.03 0.03,0.02 0.05,0.05 0.06,0.08 0.01,0.03 0.01,0.07 0.01,0.12l0 0.14c0,0.08 0,0.14 0.01,0.16 0,0.03 0.01,0.06 0.02,0.09zm-0.13 -0.27l0 -0.04c-0.06,0.02 -0.12,0.04 -0.2,0.05 -0.08,0.01 -0.12,0.04 -0.12,0.1 0,0.02 0.01,0.05 0.04,0.07 0.02,0.01 0.05,0.02 0.09,0.02 0.05,0 0.09,-0.01 0.13,-0.04 0.04,-0.03 0.06,-0.08 0.06,-0.16z"/>
   <path id="28" class="fil2" d="M27.96 6.76l-0.1 0 0 -0.38c0,-0.03 0,-0.06 -0.01,-0.08 0,-0.02 -0.01,-0.03 -0.03,-0.05 -0.01,-0.01 -0.04,-0.02 -0.07,-0.02 -0.04,0 -0.08,0.01 -0.11,0.04 -0.02,0.03 -0.04,0.07 -0.04,0.14l0 0.35 -0.1 0 0 -0.4c0,-0.05 -0.01,-0.08 -0.03,-0.1 -0.02,-0.02 -0.04,-0.03 -0.08,-0.03 -0.04,0 -0.08,0.01 -0.11,0.04 -0.03,0.03 -0.04,0.09 -0.04,0.17l0 0.32 -0.1 0 0 -0.61 0.09 0 0 0.09 0 0c0.04,-0.07 0.1,-0.1 0.18,-0.1 0.05,0 0.08,0.01 0.11,0.03 0.03,0.01 0.05,0.04 0.07,0.08 0.04,-0.08 0.1,-0.11 0.18,-0.11 0.07,0 0.11,0.02 0.14,0.05 0.04,0.03 0.05,0.08 0.05,0.15l0 0.42z"/>
   <path id="29" class="fil2" d="M28.64 6.48l-0.45 0c0,0.07 0.02,0.12 0.05,0.16 0.04,0.03 0.08,0.05 0.13,0.05 0.04,0 0.07,-0.01 0.1,-0.03 0.03,-0.02 0.05,-0.05 0.06,-0.1l0.11 0.02c-0.02,0.06 -0.05,0.11 -0.1,0.14 -0.04,0.04 -0.1,0.05 -0.17,0.05 -0.09,0 -0.16,-0.02 -0.21,-0.08 -0.05,-0.06 -0.08,-0.13 -0.08,-0.23 0,-0.09 0.03,-0.17 0.08,-0.23 0.05,-0.06 0.12,-0.09 0.21,-0.09 0.04,0 0.08,0.01 0.12,0.03 0.04,0.02 0.08,0.05 0.11,0.1 0.03,0.04 0.04,0.12 0.04,0.21zm-0.1 -0.08c-0.01,-0.06 -0.03,-0.11 -0.06,-0.14 -0.04,-0.02 -0.07,-0.04 -0.11,-0.04 -0.05,0 -0.09,0.02 -0.12,0.05 -0.03,0.03 -0.05,0.08 -0.06,0.13l0.35 0z"/>
   <path id="30" class="fil2" d="M29.26 6.76l-0.1 0 0 -0.37c0,-0.06 -0.01,-0.1 -0.04,-0.13 -0.02,-0.02 -0.05,-0.03 -0.09,-0.03 -0.03,0 -0.06,0 -0.09,0.02 -0.02,0.01 -0.04,0.04 -0.05,0.06 -0.02,0.03 -0.02,0.07 -0.02,0.12l0 0.33 -0.1 0 0 -0.61 0.09 0 0 0.09 0 0c0.02,-0.03 0.05,-0.06 0.08,-0.08 0.03,-0.01 0.07,-0.02 0.11,-0.02 0.03,0 0.07,0 0.1,0.02 0.03,0.01 0.05,0.02 0.07,0.05 0.02,0.02 0.03,0.04 0.03,0.07 0.01,0.03 0.01,0.06 0.01,0.11l0 0.37z"/>
   <path id="31" class="fil2" d="M29.65 6.76c-0.03,0 -0.05,0.01 -0.07,0.01 -0.05,0 -0.08,-0.01 -0.1,-0.03 -0.02,-0.01 -0.04,-0.03 -0.04,-0.06 0,-0.02 -0.01,-0.06 -0.01,-0.1l0 -0.35 -0.07 0 0 -0.08 0.07 0 0 -0.15 0.11 -0.06 0 0.21 0.1 0 0 0.08 -0.1 0 0 0.36c0,0.03 0,0.05 0.01,0.06 0,0.01 0.02,0.02 0.04,0.02 0.02,0 0.03,0 0.05,0l0.01 0.09z"/>
   <path id="32" class="fil2" d="M29.99 6.14c0.08,0 0.15,0.03 0.2,0.08 0.06,0.05 0.08,0.13 0.08,0.23 0,0.12 -0.03,0.2 -0.08,0.25 -0.06,0.05 -0.13,0.07 -0.2,0.07 -0.08,0 -0.14,-0.02 -0.2,-0.07 -0.06,-0.05 -0.09,-0.13 -0.09,-0.24 0,-0.11 0.03,-0.19 0.09,-0.24 0.05,-0.05 0.12,-0.08 0.2,-0.08zm0 0.55c0.06,0 0.1,-0.02 0.13,-0.07 0.03,-0.04 0.05,-0.1 0.05,-0.17 0,-0.07 -0.02,-0.13 -0.05,-0.17 -0.04,-0.04 -0.08,-0.06 -0.13,-0.06 -0.05,0 -0.1,0.02 -0.13,0.06 -0.03,0.04 -0.05,0.1 -0.05,0.18 0,0.07 0.02,0.13 0.05,0.17 0.03,0.04 0.08,0.06 0.13,0.06z"/>
   <path id="33" class="fil2" d="M30.73 6.32c0,-0.03 -0.02,-0.06 -0.04,-0.07 -0.02,-0.02 -0.05,-0.03 -0.09,-0.03 -0.04,0 -0.07,0.01 -0.1,0.02 -0.02,0.02 -0.03,0.04 -0.03,0.06 0,0.03 0.01,0.04 0.02,0.05 0.02,0.01 0.06,0.03 0.12,0.04 0.06,0.02 0.11,0.03 0.14,0.04 0.03,0.02 0.06,0.03 0.08,0.06 0.01,0.02 0.02,0.05 0.02,0.09 0,0.06 -0.02,0.1 -0.06,0.14 -0.05,0.03 -0.11,0.05 -0.18,0.05 -0.08,0 -0.14,-0.01 -0.18,-0.05 -0.04,-0.03 -0.07,-0.08 -0.08,-0.14l0.1 -0.02c0.01,0.04 0.02,0.08 0.05,0.1 0.03,0.02 0.06,0.03 0.11,0.03 0.04,0 0.08,-0.01 0.1,-0.03 0.03,-0.02 0.04,-0.04 0.04,-0.07 0,-0.02 -0.01,-0.03 -0.02,-0.04 -0.01,-0.01 -0.02,-0.02 -0.04,-0.03 -0.02,0 -0.05,-0.01 -0.11,-0.03 -0.09,-0.02 -0.14,-0.04 -0.17,-0.07 -0.03,-0.03 -0.04,-0.07 -0.04,-0.11 0,-0.05 0.02,-0.09 0.06,-0.12 0.04,-0.03 0.09,-0.05 0.16,-0.05 0.07,0 0.13,0.01 0.17,0.04 0.04,0.03 0.06,0.07 0.07,0.13l-0.1 0.01z"/>
   <g>
    <path class="fil2" d="M30.9 5.58l-21.39 0 0 -0.06 21.39 0 0 0.06z"/>
   </g>
  </g>
 </g>
</svg>
